<?xml version="1.0" encoding="UTF-8"?>
<svg width="20px" height="20px" viewBox="0 0 20 20" version="1.1" xmlns="http://www.w3.org/2000/svg" xmlns:xlink="http://www.w3.org/1999/xlink">
    <!-- Generator: Sketch 63.1 (92452) - https://sketch.com -->
    <title>icon</title>
    <desc>Created with Sketch.</desc>
    <g id="Symbols" stroke="none" stroke-width="1" fill="none" fill-rule="evenodd">
        <g id="__m/social/row" transform="translate(-160.000000, 0.000000)" fill="#FFFFFF">
            <g id="icon/instagram" transform="translate(160.000000, 0.000000)">
                <g id="Group-8" transform="translate(0.833333, 0.833333)">
                    <path d="M10.1713428,0.000676600897 C11.7679245,0.00389475704 12.1186817,0.0172574654 12.945992,0.0550055771 C13.921721,0.0995078185 14.5880476,0.254483326 15.1711563,0.481106351 C15.7739505,0.71533442 16.2851575,1.02877866 16.7947635,1.53838937 C17.3044059,2.04803646 17.6178109,2.55924822 17.8520731,3.16201161 C18.0786941,3.74512561 18.2336682,4.41145844 18.27817,5.38719646 C18.3193494,6.28972509 18.3315084,6.62514195 18.3331353,8.62949633 L18.3331353,9.70380837 C18.3315084,11.7081914 18.3193494,12.0436082 18.27817,12.9461369 C18.2336682,13.9218385 18.0786941,14.5882077 17.8520731,15.1712853 C17.6178109,15.7740851 17.3044059,16.2852969 16.7947635,16.7949076 C16.2851575,17.3045547 15.7739505,17.6179625 15.1711563,17.8522634 C14.5880476,18.07885 13.921721,18.2338255 12.945992,18.2783641 C12.0810767,18.3177959 11.7370221,18.3306035 9.94574334,18.3330341 L8.38741498,18.3330341 C6.5961487,18.3306035 6.25204087,18.3177959 5.38715778,18.2783641 C4.41142877,18.2338255 3.7451021,18.07885 3.16199349,17.8522634 C2.55923566,17.6179625 2.04799223,17.3045547 1.53838623,16.7949076 C1.02874385,16.2852969 0.715338892,15.7740487 0.4810766,15.1712853 C0.254455668,14.5882077 0.0995179792,13.9218385 0.0549797614,12.9461369 C0.0172319984,12.1188189 0.00389546602,11.7680325 0.000685355768,10.171428 L0.000685355768,8.16187123 C0.00389546602,6.56527481 0.0172319984,6.21451437 0.0549797614,5.38719646 C0.0995179792,4.41145844 0.254455668,3.74512561 0.4810766,3.16201161 C0.715338892,2.55924822 1.02874385,2.04803646 1.53838623,1.53838937 C2.04799223,1.02877866 2.55923566,0.71533442 3.16199349,0.481106351 C3.7451021,0.254483326 4.41142877,0.0995078185 5.38715778,0.0550055771 C6.21443726,0.0172574654 6.56524182,0.00389475704 8.16181676,0.000676600897 Z M9.93200621,1.65193013 L8.40114348,1.65193013 C6.64302836,1.65413175 6.31750466,1.6659229 5.46240699,1.70493618 C4.56869525,1.74572687 4.0832869,1.89506228 3.76027566,2.02060008 C3.33243222,2.18689218 3.0270325,2.38553301 2.70627728,2.70632758 C2.38552206,3.02708577 2.18684667,3.33245192 2.02055611,3.7603357 C1.89505585,4.08334992 1.74572183,4.56872637 1.70493151,5.46248275 C1.66591859,6.31755614 1.65412755,6.6431076 1.65192595,8.40121991 L1.65192595,9.93208822 C1.65412755,11.6902257 1.66591859,12.0157772 1.70493151,12.8708506 C1.74572183,13.7646069 1.89505585,14.2499834 2.02055611,14.5729976 C2.18684667,15.000845 2.38552206,15.3062476 2.70627728,15.6270057 C3.0270325,15.9478003 3.33243222,16.1464411 3.76027566,16.3127332 C4.0832869,16.4382347 4.56869525,16.5876064 5.46244338,16.6283608 C6.28020894,16.6656778 6.61355357,16.6781145 8.17971845,16.6810579 L10.1534313,16.6810579 C11.7195962,16.6781145 12.0529408,16.6656778 12.8707064,16.6283608 C13.7644545,16.5876064 14.2498265,16.4382347 14.5728377,16.3127332 C15.0007175,16.1464411 15.3061172,15.9478003 15.6268725,15.6270057 C15.9476277,15.3062476 16.1462667,15.000845 16.3125936,14.5729976 C16.4380939,14.2499834 16.5874279,13.7646069 16.6282182,12.8708142 C16.667199,12.015773 16.6790148,11.6902252 16.6812225,9.93208816 L16.6812225,8.40121991 C16.6790148,6.6431076 16.667199,6.31755614 16.6282182,5.46248275 C16.5874279,4.56872637 16.4380939,4.08334992 16.3125936,3.7603357 C16.1462667,3.33245192 15.9476277,3.02708577 15.6268725,2.7062912 C15.3061172,2.38553301 15.0007175,2.18689218 14.5728377,2.02060008 C14.2498265,1.89506228 13.7644545,1.74572687 12.8707064,1.70493618 C12.0156409,1.6659229 11.6901209,1.65413175 9.93200621,1.65193013 Z M9.16948539,4.39551695 C11.7016082,4.39551695 13.7542842,6.53031971 13.7542842,9.16375176 C13.7542842,11.7972207 11.7016082,13.9320234 9.16948539,13.9320234 C6.63736258,13.9320234 4.58465114,11.7972207 4.58465114,9.16375176 C4.58465114,6.53031971 6.63736258,4.39551695 9.16948539,4.39551695 Z M9.16948539,6.06858633 C7.52583481,6.06858633 6.19335683,7.45433936 6.19335683,9.16375176 C6.19335683,10.8731642 7.52583481,12.2589541 9.16948539,12.2589541 C10.813136,12.2589541 12.145614,10.8731642 12.145614,9.16375176 C12.145614,7.45433936 10.813136,6.06858633 9.16948539,6.06858633 Z M14.1363712,2.92836211 C14.7694082,2.92836211 15.2825564,3.42099708 15.2825564,4.02872824 C15.2825564,4.6364594 14.7694082,5.12909438 14.1363712,5.12909438 C13.5033342,5.12909438 12.9901481,4.6364594 12.9901481,4.02872824 C12.9901481,3.42099708 13.5033342,2.92836211 14.1363712,2.92836211 Z" id="Combined-Shape"></path>
                </g>
            </g>
        </g>
    </g>
</svg>