<?xml version="1.0" encoding="utf-8"?>
<!-- Generator: Adobe Illustrator 15.1.0, SVG Export Plug-In . SVG Version: 6.00 Build 0)  -->
<!DOCTYPE svg PUBLIC "-//W3C//DTD SVG 1.1//EN" "http://www.w3.org/Graphics/SVG/1.1/DTD/svg11.dtd">
<svg version="1.1" id="Layer_1" xmlns="http://www.w3.org/2000/svg" xmlns:xlink="http://www.w3.org/1999/xlink" x="0px" y="0px"
	 width="275px" height="56px" viewBox="0 0 275 56" enable-background="new 0 0 275 56" xml:space="preserve">
<g>
	<polyline fill="#FFFFFF" points="259.474,10.887 259.816,11.875 263.657,10.545 263.657,42.561 259.816,41.23 259.474,42.219 
		264.703,44.029 264.703,9.076 259.474,10.887 	"/>
	<g>
		<polyline fill="#FFFFFF" points="246.245,35.409 245.342,34.222 244.951,34.222 244.951,36.15 245.369,36.15 245.369,34.924 
			246.303,36.15 246.665,36.15 246.665,34.222 246.245,34.222 246.245,35.409 		"/>
		<polyline fill="#FFFFFF" points="243.843,33.267 244.92,30.086 244.033,30.086 243.496,31.926 242.903,30.086 242.163,30.086 
			241.57,31.926 241.032,30.086 240.129,30.086 241.205,33.267 241.937,33.267 242.522,31.457 243.113,33.267 243.843,33.267 		"/>
		<path fill="#FFFFFF" d="M247.695,35.344l0.257-0.627l0.256,0.627H247.695 M247.761,34.209l-0.825,1.941h0.431l0.177-0.434h0.815
			l0.176,0.434h0.443l-0.825-1.941H247.761z"/>
		<path fill="#FFFFFF" d="M244.158,35.191c0,0.33-0.237,0.601-0.579,0.601s-0.584-0.276-0.584-0.606V35.18
			c0-0.33,0.237-0.6,0.578-0.6c0.342,0,0.585,0.275,0.585,0.605V35.191 M243.579,34.189c-0.595,0-1.026,0.448-1.026,0.996v0.006
			c0,0.549,0.426,0.991,1.021,0.991c0.596,0,1.028-0.448,1.028-0.997V35.18C244.602,34.633,244.174,34.189,243.579,34.189"/>
		<path fill="#FFFFFF" d="M245.756,31.666c0-0.457,0.322-0.85,0.805-0.85c0.484,0,0.817,0.4,0.817,0.859v0.01
			c0,0.459-0.323,0.85-0.81,0.85c-0.481,0-0.812-0.401-0.812-0.859V31.666 M246.561,33.33c0.98,0,1.716-0.74,1.716-1.654v-0.01
			c0-0.912-0.726-1.645-1.708-1.645c-0.979,0-1.717,0.74-1.717,1.654v0.01C244.852,32.598,245.578,33.33,246.561,33.33"/>
		<polyline fill="#FFFFFF" points="230.252,34.613 230.839,34.613 230.839,36.15 231.264,36.15 231.264,34.613 231.85,34.613 
			231.85,34.222 230.252,34.222 230.252,34.613 		"/>
		<path fill="#FFFFFF" d="M250.559,31.235c0,0.231-0.173,0.377-0.472,0.377h-0.615V30.85h0.61c0.296,0,0.477,0.127,0.477,0.377
			V31.235 M251.463,31.182v-0.01c0-0.315-0.097-0.559-0.283-0.739c-0.213-0.22-0.548-0.347-1.036-0.347h-1.537v3.181h0.883v-0.964
			h0.418l0.642,0.964h1.017l-0.758-1.109C251.204,31.988,251.463,31.666,251.463,31.182"/>
		<polyline fill="#FFFFFF" points="238.272,33.267 239.155,33.267 239.155,30.856 240.012,30.856 239.756,30.086 237.353,30.086 
			237.353,30.856 238.272,30.856 238.272,33.267 		"/>
		<polyline fill="#FFFFFF" points="237.125,32.517 235.707,32.517 235.707,32.012 236.827,32.012 236.827,31.316 235.707,31.316 
			235.707,30.855 237.017,30.855 237.017,30.086 234.835,30.086 234.835,33.266 237.125,33.266 237.125,32.517 		"/>
		<polyline fill="#FFFFFF" points="254.942,30.085 253.898,30.085 252.802,31.376 252.802,30.085 251.921,30.085 251.921,33.267 
			252.802,33.267 252.802,32.443 253.126,32.084 253.924,33.267 254.981,33.267 253.738,31.453 254.942,30.085 		"/>
		<rect x="241.758" y="34.222" fill="#FFFFFF" width="0.424" height="1.929"/>
		<polyline fill="#FFFFFF" points="249.674,34.222 249.249,34.222 249.249,36.15 250.635,36.15 250.635,35.764 249.674,35.764 
			249.674,34.222 		"/>
		<path fill="#FFFFFF" d="M256.511,31.285c-0.441-0.1-0.551-0.164-0.551-0.309v-0.01c0-0.113,0.105-0.205,0.318-0.205
			c0.282,0,0.602,0.109,0.892,0.314l0.44-0.623c-0.345-0.276-0.768-0.422-1.309-0.422c-0.763,0-1.231,0.427-1.231,1.018v0.009
			c0,0.655,0.521,0.846,1.199,1c0.434,0.1,0.536,0.173,0.536,0.304v0.01c0,0.135-0.126,0.219-0.364,0.219
			c-0.365,0-0.716-0.133-1.029-0.383l-0.491,0.586c0.391,0.351,0.926,0.527,1.489,0.527c0.773,0,1.287-0.387,1.287-1.035v-0.009
			C257.696,31.682,257.242,31.444,256.511,31.285"/>
		<polyline fill="#FFFFFF" points="234.398,30.085 233.526,30.085 233.526,31.766 232.217,30.085 231.396,30.085 231.396,33.267 
			232.267,33.267 232.267,31.521 233.625,33.267 234.398,33.267 234.398,30.085 		"/>
		<polyline fill="#FFFFFF" points="229.536,35.409 228.633,34.222 228.241,34.222 228.241,36.15 228.66,36.15 228.66,34.924 
			229.593,36.15 229.955,36.15 229.955,34.222 229.536,34.222 229.536,35.409 		"/>
		<polyline fill="#FFFFFF" points="226.563,30.083 225.788,30.083 225.138,31.915 224.499,30.083 223.724,30.083 223.174,31.725 
			223.657,33.031 224.15,31.512 224.74,33.261 225.541,33.261 226.132,31.512 226.714,33.261 227.636,33.261 226.563,30.083 		"/>
		<rect x="227.362" y="34.222" fill="#FFFFFF" width="0.425" height="1.929"/>
		<path fill="#FFFFFF" d="M229.776,32.13c-0.19,0.229-0.383,0.384-0.713,0.384c-0.441,0-0.752-0.369-0.752-0.843V31.66
			c0-0.459,0.311-0.833,0.752-0.833c0.303,0,0.51,0.144,0.69,0.37l0.658-0.509c-0.28-0.388-0.694-0.659-1.339-0.659
			c-0.955,0-1.664,0.722-1.664,1.642v0.008c0,0.942,0.727,1.632,1.628,1.632c0.698,0,1.1-0.301,1.397-0.713L229.776,32.13"/>
		<path fill="#FFFFFF" d="M221.53,32.018l0.336-0.976l0.331,0.976H221.53 M221.477,30.083l-1.176,3.178h0.819l0.2-0.563h1.115
			l0.184,0.563h0.825l-1.174-3.178H221.477z"/>
		<polyline fill="#FFFFFF" points="232.569,35.367 233.479,35.367 233.479,34.99 232.569,34.99 232.569,34.599 233.604,34.599 
			233.604,34.222 232.148,34.222 232.148,36.149 233.617,36.149 233.617,35.772 232.569,35.772 232.569,35.367 		"/>
		<polyline fill="#FFFFFF" points="237.225,35.409 236.322,34.222 235.931,34.222 235.931,36.15 236.351,36.15 236.351,34.924 
			237.283,36.15 237.644,36.15 237.644,34.222 237.225,34.222 237.225,35.409 		"/>
		<path fill="#FFFFFF" d="M238.676,35.344l0.256-0.627l0.256,0.627H238.676 M238.742,34.209l-0.827,1.941h0.433l0.176-0.434h0.816
			l0.175,0.434h0.444l-0.826-1.941H238.742z"/>
		<path fill="#FFFFFF" d="M235.146,34.886c0,0.163-0.118,0.272-0.324,0.272h-0.43v-0.553h0.42c0.207,0,0.333,0.093,0.333,0.274
			V34.886 M235.576,34.863v-0.005c0-0.183-0.06-0.334-0.166-0.44c-0.127-0.127-0.316-0.196-0.562-0.196h-0.881v1.929h0.425v-0.617
			h0.332l0.414,0.617h0.496l-0.472-0.689C235.408,35.371,235.576,35.175,235.576,34.863"/>
		<polyline fill="#FFFFFF" points="239.843,34.613 240.43,34.613 240.43,36.15 240.854,36.15 240.854,34.613 241.44,34.613 
			241.44,34.222 239.843,34.222 239.843,34.613 		"/>
		<path fill="#FFFFFF" d="M258.101,32.809h-0.174v-0.074h0.426v0.074h-0.175v0.47h-0.077V32.809 M258.473,32.734h0.084l0.193,0.298
			l0.192-0.298h0.08v0.544h-0.075v-0.417l-0.192,0.295h-0.013l-0.192-0.295v0.417h-0.077V32.734z"/>
		<g>
			<polyline fill="#FFFFFF" points="108.971,24.699 107.925,23.408 107.499,23.408 107.499,26.554 107.949,26.554 107.949,24.105 
				108.928,25.322 109.011,25.322 109.978,24.105 109.978,26.554 110.431,26.554 110.431,23.408 110.01,23.408 108.971,24.699 			
				"/>
			<path fill="#FFFFFF" d="M105.158,25.221l0.471-1.14l0.508,1.14H105.158 M105.475,23.391l-1.351,3.163h0.462l0.394-0.933h1.342
				l0.419,0.933h0.461l-1.41-3.163H105.475z"/>
			<path fill="#FFFFFF" d="M114.224,19.083c0.117-0.096,0.176-0.23,0.176-0.402c0-0.153-0.054-0.274-0.162-0.364
				s-0.249-0.134-0.425-0.134h-0.549v1.045h0.481C113.947,19.228,114.107,19.18,114.224,19.083"/>
			<path fill="#FFFFFF" d="M121.767,25.209l0.47-1.14l0.508,1.14H121.767 M122.4,23.378h-0.316l-1.352,3.163h0.463l0.393-0.932
				h1.343l0.418,0.932h0.461L122.4,23.378z"/>
			<path fill="#FFFFFF" d="M114.984,24.726c-0.084,0.038-0.241,0.058-0.469,0.058h-0.171v-0.992h0.135
				c0.221,0,0.379,0.016,0.474,0.049c0.096,0.033,0.169,0.09,0.222,0.17c0.052,0.081,0.078,0.171,0.078,0.27
				c0,0.101-0.023,0.189-0.071,0.269C115.136,24.627,115.069,24.686,114.984,24.726 M115.889,25.926
				c-0.174-0.284-0.309-0.482-0.406-0.598c-0.096-0.113-0.194-0.204-0.295-0.27c0.171-0.066,0.303-0.166,0.395-0.3
				s0.137-0.292,0.137-0.476c0-0.268-0.094-0.48-0.281-0.639c-0.187-0.158-0.439-0.236-0.758-0.236h-0.788v3.146h0.45v-1.369h0.117
				c0.147,0,0.251,0.017,0.314,0.05c0.062,0.034,0.132,0.09,0.209,0.166c0.078,0.076,0.163,0.18,0.256,0.309l0.15,0.245l0.14,0.229
				l0.087,0.125c0.014,0.018,0.022,0.03,0.027,0.037l0.137,0.208h0.536l-0.167-0.226C116.086,26.238,115.999,26.104,115.889,25.926"
				/>
			<rect x="116.732" y="23.408" fill="#FFFFFF" width="0.45" height="3.146"/>
			<path fill="#FFFFFF" d="M122.486,21.194c0,0.022-0.038,0.051-0.065,0.063c-0.37,0.182-0.76,0.288-1.17,0.324
				c-0.448,0.039-0.883-0.014-1.301-0.176c-0.617-0.242-1.019-0.688-1.204-1.324c-0.277-0.953,0.226-2,1.233-2.384
				c0.642-0.243,1.288-0.229,1.937-0.036c0.163,0.049,0.378,0.125,0.538,0.184v0.729c-0.029-0.014-0.05-0.022-0.069-0.032
				c-0.363-0.192-0.744-0.336-1.153-0.386c-0.562-0.069-1.071,0.047-1.479,0.466c-0.219,0.225-0.317,0.51-0.343,0.818
				c-0.039,0.455,0.112,0.841,0.451,1.144c0.245,0.22,0.548,0.312,0.868,0.355c0.561,0.075,1.066-0.092,1.551-0.353
				c0.065-0.035,0.129-0.073,0.209-0.118C122.489,20.72,122.492,20.957,122.486,21.194 M123.658,16.781h-5.885v5.522h5.885V16.781z"
				/>
			<path fill="#FFFFFF" d="M118.615,25.842c-0.234-0.223-0.351-0.506-0.351-0.852c0-0.342,0.12-0.627,0.357-0.854
				c0.238-0.227,0.537-0.341,0.897-0.341c0.352,0,0.711,0.105,1.079,0.315v-0.483c-0.404-0.173-0.771-0.26-1.102-0.26
				c-0.479,0-0.881,0.156-1.208,0.469c-0.326,0.312-0.49,0.697-0.49,1.154c0,0.289,0.072,0.557,0.214,0.805
				c0.143,0.247,0.337,0.441,0.582,0.583s0.543,0.212,0.894,0.212c0.432,0,0.813-0.091,1.144-0.271v-0.495
				c-0.364,0.234-0.736,0.352-1.117,0.352C119.15,26.176,118.85,26.064,118.615,25.842"/>
			<path fill="#FFFFFF" d="M115.327,21.021c-0.112,0.173-0.268,0.304-0.467,0.391c-0.199,0.086-0.434,0.129-0.704,0.129h-1.591
				v-3.957h1.384c0.363,0,0.658,0.096,0.887,0.284s0.343,0.425,0.343,0.708c0,0.182-0.048,0.341-0.144,0.479
				s-0.234,0.248-0.415,0.329v0.034c0.275,0.062,0.49,0.186,0.644,0.369s0.23,0.399,0.23,0.646
				C115.496,20.653,115.439,20.849,115.327,21.021 M116.915,16.781h-5.885v5.521h5.885V16.781z"/>
			<path fill="#FFFFFF" d="M114.512,19.971c-0.131-0.098-0.308-0.145-0.528-0.145h-0.719v1.117h0.66
				c0.259,0,0.454-0.048,0.587-0.146c0.132-0.097,0.198-0.24,0.198-0.429C114.708,20.201,114.643,20.068,114.512,19.971"/>
			<path fill="#FFFFFF" d="M108.543,21.021c-0.112,0.173-0.268,0.304-0.468,0.391c-0.199,0.086-0.434,0.129-0.704,0.129h-1.591
				v-3.957h1.384c0.362,0,0.658,0.096,0.886,0.284c0.228,0.188,0.343,0.425,0.343,0.708c0,0.182-0.048,0.341-0.144,0.479
				c-0.095,0.138-0.234,0.248-0.415,0.329v0.034c0.275,0.062,0.491,0.186,0.645,0.369c0.154,0.184,0.231,0.399,0.231,0.646
				C108.711,20.653,108.655,20.849,108.543,21.021 M110.099,16.781h-5.885v5.521h5.885V16.781z"/>
			<path fill="#FFFFFF" d="M107.727,19.971c-0.131-0.098-0.308-0.145-0.529-0.145h-0.719v1.117h0.659
				c0.26,0,0.455-0.048,0.587-0.146c0.132-0.097,0.198-0.24,0.198-0.429C107.924,20.201,107.858,20.068,107.727,19.971"/>
			<path fill="#FFFFFF" d="M107.439,19.083c0.117-0.096,0.176-0.23,0.176-0.402c0-0.153-0.054-0.274-0.162-0.364
				s-0.25-0.134-0.425-0.134h-0.549v1.045h0.481C107.163,19.228,107.322,19.18,107.439,19.083"/>
			<polyline fill="#FFFFFF" points="111.722,25.171 113.011,25.171 113.011,24.768 111.722,24.768 111.722,23.809 113.055,23.809 
				113.055,23.408 111.272,23.408 111.272,26.549 113.099,26.549 113.099,26.148 111.722,26.148 111.722,25.171 			"/>
			<path fill="#FFFFFF" d="M170.112,22.904l0.265-2.096c0.042-0.295,0.062-0.549,0.097-0.865h0.009
				c0.031,0.306,0.052,0.57,0.095,0.865l0.254,2.096H170.112 M169.819,17.762l-1.284,7.831h1.284l0.221-1.749h0.864l0.221,1.749
				h1.38l-1.275-7.831H169.819z"/>
			<polyline fill="#FFFFFF" points="182.307,22.008 183.305,22.008 183.305,20.892 182.307,20.892 182.307,18.984 183.736,18.984 
				183.736,17.793 180.947,17.793 180.947,25.593 183.79,25.593 183.79,24.442 182.307,24.442 182.307,22.008 			"/>
			<path fill="#FFFFFF" d="M166.377,24.443h-0.2v-5.458h0.19c0.683,0,0.768,0.58,0.768,2.708
				C167.135,23.791,167.05,24.443,166.377,24.443 M166.154,17.793h-1.335v7.8h1.335c1.508,0,2.371-0.602,2.371-3.899
				C168.525,18.373,167.692,17.793,166.154,17.793"/>
			<path fill="#FFFFFF" d="M178.726,24.443c-0.452,0-0.517-0.748-0.517-2.75c0-1.95,0.053-2.719,0.506-2.719
				c0.338,0,0.453,0.39,0.474,1.792l1.284-0.052c-0.021-2.31-0.517-2.994-1.758-2.994c-1.283,0-1.896,1.041-1.896,3.973
				c0,2.93,0.602,3.973,1.907,3.973c1.473,0,1.727-1.329,1.799-2.93l-1.282-0.053C179.2,24.139,179.094,24.443,178.726,24.443"/>
			<path fill="#FFFFFF" d="M175.136,20.197c0,0.537,0.011,1.381,0.063,2.139h-0.021c-0.127-0.728-0.307-1.496-0.465-2.161
				l-0.6-2.382h-1.274v7.8h1.169v-2.467c0-0.41-0.012-1.613-0.062-2.118h0.021c0.127,0.759,0.348,1.433,0.538,2.118l0.685,2.467
				h1.115v-7.8h-1.169V20.197"/>
			<path fill="#FFFFFF" d="M153.902,19.502c0-0.361,0.105-0.602,0.358-0.602c0.283,0,0.442,0.127,0.505,1.244l1.273-0.116
				c-0.095-1.485-0.484-2.308-1.8-2.308c-1.095,0-1.685,0.736-1.685,1.917c0,1.161,0.643,1.845,1.222,2.498
				c0.526,0.591,1,1.033,1,1.695c0,0.476-0.167,0.697-0.474,0.697c-0.39,0-0.506-0.316-0.61-1.423l-1.263,0.095
				c0.104,1.434,0.37,2.466,1.864,2.466c1.169,0,1.82-0.664,1.82-1.907s-0.651-1.854-1.252-2.499
				C154.354,20.715,153.902,20.271,153.902,19.502"/>
			<path fill="#FFFFFF" d="M162.976,20.197c0,0.537,0.011,1.381,0.063,2.139h-0.021c-0.126-0.728-0.306-1.496-0.462-2.161
				l-0.6-2.382h-1.275v7.8h1.168v-2.467c0-0.41-0.009-1.613-0.063-2.118h0.021c0.127,0.759,0.348,1.433,0.538,2.118l0.686,2.467
				h1.115v-7.8h-1.169V20.197"/>
			<path fill="#FFFFFF" d="M158.733,23.348c0,0.918-0.083,1.181-0.431,1.181c-0.357,0-0.432-0.286-0.432-1.199v-5.535h-1.358v5.616
				c0,1.457,0.42,2.256,1.746,2.256s1.769-0.812,1.769-2.286v-5.586h-1.294V23.348"/>
			<polyline fill="#FFFFFF" points="184.736,18.985 185.757,18.985 185.757,25.593 187.126,25.593 187.126,18.985 188.137,18.985 
				188.137,17.794 184.736,17.794 184.736,18.985 			"/>
			<path fill="#FFFFFF" d="M190.863,17.793l-0.421,3.857c-0.063,0.601-0.127,1.307-0.169,1.971h-0.02
				c-0.056-0.664-0.105-1.37-0.17-1.971l-0.432-3.857h-1.369l1.222,7.832h1.412l1.23-7.832H190.863"/>
			<path fill="#FFFFFF" d="M201.091,24.289h1.341c0.312,0,0.322-0.012,0.377-0.324l0.681-3.999l0.681,3.999
				c0.054,0.312,0.064,0.324,0.378,0.324h1.341c0.28,0,0.335-0.033,0.367-0.217l1.329-6.59c0.023-0.108,0.032-0.162,0.032-0.195
				c0-0.151-0.085-0.205-0.355-0.205h-1.277c-0.314,0-0.324,0.011-0.378,0.324l-0.541,4.145c0,0-0.339-2.098-0.447-2.74
				c-0.106-0.642-0.234-1.415-0.234-1.415c-0.053-0.303-0.063-0.313-0.378-0.313h-1.037c-0.312,0-0.323,0.011-0.378,0.313
				c0,0-0.125,0.773-0.234,1.415c-0.106,0.643-0.447,2.74-0.447,2.74l-0.539-4.145c-0.055-0.313-0.065-0.324-0.377-0.324h-1.277
				c-0.27,0-0.356,0.054-0.356,0.205c0,0.033,0.01,0.087,0.031,0.195l1.329,6.59C200.756,24.256,200.809,24.289,201.091,24.289"/>
			<path fill="#FFFFFF" d="M211.338,25.217l-0.26,0.895c-0.018,0.06-0.024,0.065-0.083,0.065h-0.193
				c-0.058,0-0.067-0.006-0.083-0.065l-0.206-0.712h-0.209v0.712c0,0.06-0.005,0.065-0.064,0.065h-0.17
				c-0.059,0-0.066-0.006-0.066-0.065v-0.712h-0.163c-0.059,0-0.063-0.005-0.063-0.064v-0.118c0-0.059,0.005-0.064,0.063-0.064
				h0.163v-0.225c0-0.059,0.007-0.064,0.066-0.064h0.17c0.059,0,0.064,0.006,0.064,0.064v0.225h0.378
				c0.06,0,0.065,0.006,0.079,0.064l0.137,0.567l0.137-0.567c0.014-0.059,0.021-0.064,0.082-0.064h0.176
				C211.35,25.152,211.353,25.158,211.338,25.217 M211.233,24.654h-10.997c-0.324,0-0.356,0.033-0.356,0.356v1.017
				c0,0.323,0.032,0.355,0.356,0.355h10.997c0.323,0,0.356-0.032,0.356-0.355v-1.017C211.589,24.688,211.556,24.654,211.233,24.654"
				/>
			<path fill="#FFFFFF" d="M211.233,17.082h-2.907c-0.325,0-0.358,0.033-0.358,0.355v6.494c0,0.324,0.033,0.357,0.358,0.357h2.907
				c0.323,0,0.356-0.033,0.356-0.357v-1.015c0-0.325-0.033-0.356-0.356-0.356h-1.32v-1.103h1.146c0.325,0,0.356-0.032,0.356-0.356
				v-0.918c0-0.324-0.032-0.357-0.356-0.357h-1.146v-1.048h1.32c0.323,0,0.356-0.032,0.356-0.356v-0.984
				C211.589,17.115,211.556,17.082,211.233,17.082"/>
			<path fill="#FFFFFF" d="M232.665,23.679c-1.1,0-1.49-0.991-1.49-2.042c0-0.28,0-1.082,0.528-1.592
				c0.149-0.15,0.46-0.382,0.951-0.382c0.939,0,1.28,0.752,1.461,1.172l1.869-0.93c-0.148-0.282-0.288-0.521-0.587-0.832
				c-0.742-0.76-1.762-1.142-2.833-1.142c-2.39,0-3.66,1.934-3.66,3.836c0,1.812,1.139,3.713,3.66,3.713
				c1.013,0,2.02-0.33,2.742-1.042c0.337-0.34,0.507-0.659,0.689-1.001l-1.899-0.92C234.014,22.758,233.703,23.679,232.665,23.679"
				/>
			<polyline fill="#FFFFFF" points="222.619,25.272 224.849,25.272 224.849,22.547 227.99,22.547 227.99,21.025 224.849,21.025 
				224.849,19.754 228.21,19.754 228.21,18.192 222.619,18.192 222.619,25.272 			"/>
			<polyline fill="#FFFFFF" points="237.185,25.272 238.127,25.272 238.127,21.947 241.468,21.947 241.468,21.126 238.127,21.126 
				238.127,19.033 241.716,19.033 241.716,18.191 237.185,18.191 237.185,25.272 			"/>
			<rect x="242.439" y="20.555" fill="#FFFFFF" width="0.77" height="4.718"/>
			<path fill="#FFFFFF" d="M220.407,18.698h1.196c0.052,0,0.111,0.011,0.174,0.028l-0.011-0.533h-2.976v7.079h2.987v-5.321
				c-0.062,0.019-0.122,0.028-0.174,0.028h-1.196c-0.204,0-0.368-0.164-0.368-0.368v-0.545
				C220.04,18.863,220.203,18.698,220.407,18.698"/>
			<rect x="242.439" y="18.202" fill="#FFFFFF" width="0.77" height="0.83"/>
			<path fill="#FFFFFF" d="M255.77,22.569l-0.45-0.11c-0.622-0.15-1.13-0.29-1.13-0.742c0-0.32,0.31-0.689,0.929-0.689
				c0.24,0,0.601,0.039,0.91,0.279c0.311,0.24,0.331,0.471,0.342,0.761l0.86-0.11c-0.161-1.111-1.12-1.542-2.021-1.542
				c-1.091,0-1.823,0.54-1.823,1.401c0,0.981,0.932,1.191,1.692,1.373l0.449,0.091c0.572,0.108,0.981,0.21,0.981,0.749
				c0,0.513-0.41,0.781-1.111,0.781c-0.319,0-0.67-0.029-0.95-0.269c-0.361-0.311-0.361-0.711-0.351-0.922l-0.897,0.14
				c0.087,0.791,0.548,1.174,0.701,1.283c0.377,0.27,0.927,0.381,1.458,0.381c1.301,0,1.981-0.721,1.981-1.493
				C257.34,22.939,256.331,22.699,255.77,22.569"/>
			<rect x="244.256" y="18.202" fill="#FFFFFF" width="0.77" height="7.07"/>
			<path fill="#FFFFFF" d="M251.099,20.405c-0.702,0-1.162,0.462-1.571,0.87c-0.22-0.369-0.51-0.87-1.282-0.87
				c-0.349,0-0.839,0.109-1.408,0.781v-0.632h-0.782v4.718h0.782v-2.805c0-0.42,0-0.681,0.308-0.962
				c0.252-0.219,0.581-0.35,0.881-0.35c0.352,0,0.581,0.17,0.69,0.321c0.182,0.239,0.182,0.57,0.182,0.749v3.036h0.78v-2.644
				c0-0.571,0.02-0.792,0.28-1.062c0.229-0.24,0.59-0.4,0.919-0.4c0.17,0,0.672,0.05,0.82,0.593
				c0.039,0.158,0.039,0.318,0.039,0.749v2.765h0.781v-2.954c0-0.472-0.007-0.793-0.128-1.082
				C252.197,20.766,251.677,20.405,251.099,20.405"/>
			<line fill="#FFFFFF" x1="257.463" y1="20.555" x2="257.463" y2="20.643"/>
			<path fill="#FFFFFF" d="M121.11,34.924c-0.507,0-0.893-0.107-1.223-0.441l0.424-0.424c0.211,0.212,0.498,0.282,0.809,0.282
				c0.385,0,0.592-0.146,0.592-0.413c0-0.118-0.033-0.217-0.104-0.283c-0.066-0.061-0.141-0.094-0.296-0.117l-0.405-0.056
				c-0.287-0.043-0.499-0.132-0.649-0.278c-0.16-0.159-0.239-0.376-0.239-0.658c0-0.597,0.442-1.016,1.166-1.016
				c0.461,0,0.794,0.113,1.081,0.391l-0.413,0.409c-0.212-0.202-0.466-0.23-0.687-0.23c-0.348,0-0.517,0.192-0.517,0.423
				c0,0.085,0.028,0.175,0.098,0.24c0.066,0.061,0.174,0.113,0.311,0.131l0.395,0.057c0.306,0.043,0.499,0.127,0.639,0.259
				c0.179,0.169,0.259,0.414,0.259,0.71C122.352,34.557,121.811,34.924,121.11,34.924"/>
			<path fill="#FFFFFF" d="M124.147,34.924c-0.686,0-1.231-0.465-1.231-1.175v-2.2h0.654v2.176c0,0.386,0.226,0.616,0.578,0.616
				c0.353,0,0.583-0.23,0.583-0.616v-2.176h0.649v2.2C125.379,34.459,124.834,34.924,124.147,34.924"/>
			<polyline fill="#FFFFFF" points="128.087,34.896 126.761,32.842 126.761,34.896 126.108,34.896 126.108,31.549 126.691,31.549 
				128.017,33.598 128.017,31.549 128.67,31.549 128.67,34.896 128.087,34.896 			"/>
			<path fill="#FFFFFF" d="M131.087,32.338c-0.113-0.137-0.264-0.207-0.489-0.207h-0.494v2.182h0.494
				c0.226,0,0.376-0.07,0.489-0.207c0.122-0.15,0.141-0.391,0.141-0.898C131.228,32.7,131.209,32.488,131.087,32.338
				 M131.542,34.576c-0.221,0.221-0.536,0.319-0.884,0.319h-1.208v-3.347h1.208c0.348,0,0.663,0.099,0.884,0.319
				c0.376,0.376,0.338,0.837,0.338,1.339C131.881,33.711,131.919,34.2,131.542,34.576"/>
			<path fill="#FFFFFF" d="M133.625,32.535l-0.423,1.218h0.832L133.625,32.535 M134.406,34.896l-0.197-0.593h-1.19l-0.202,0.593
				h-0.682l1.218-3.347h0.513l1.223,3.347H134.406z"/>
			<polyline fill="#FFFFFF" points="137.48,34.896 136.154,32.842 136.154,34.896 135.501,34.896 135.501,31.549 136.084,31.549 
				137.409,33.598 137.409,31.549 138.063,31.549 138.063,34.896 137.48,34.896 			"/>
			<path fill="#FFFFFF" d="M139.962,34.924c-0.358,0-0.658-0.122-0.903-0.367c-0.145-0.145-0.234-0.314-0.272-0.502
				c-0.038-0.188-0.057-0.466-0.057-0.832c0-0.367,0.019-0.645,0.057-0.833c0.038-0.192,0.127-0.356,0.272-0.503
				c0.245-0.244,0.545-0.367,0.903-0.367c0.644,0,1.119,0.377,1.232,1.059h-0.664c-0.07-0.287-0.249-0.475-0.563-0.475
				c-0.179,0-0.32,0.056-0.418,0.174c-0.137,0.145-0.165,0.296-0.165,0.945c0,0.648,0.028,0.799,0.165,0.944
				c0.099,0.117,0.24,0.174,0.418,0.174c0.314,0,0.494-0.188,0.563-0.475h0.664C141.081,34.548,140.602,34.924,139.962,34.924"/>
			<polyline fill="#FFFFFF" points="141.758,34.896 141.758,31.549 143.963,31.549 143.963,32.131 142.412,32.131 142.412,32.916 
				143.733,32.916 143.733,33.499 142.412,33.499 142.412,34.312 143.963,34.312 143.963,34.896 141.758,34.896 			"/>
			<polyline fill="#FFFFFF" points="146.074,31.986 146.074,34.896 145.82,34.896 145.82,31.549 146.074,31.549 148.006,34.449 
				148.006,31.549 148.26,31.549 148.26,34.896 148.006,34.896 146.074,31.986 			"/>
			<path fill="#FFFFFF" d="M150.944,32.004c-0.169-0.168-0.395-0.258-0.635-0.258s-0.465,0.09-0.635,0.258
				c-0.24,0.24-0.259,0.504-0.259,1.219c0,0.714,0.019,0.978,0.259,1.217c0.169,0.17,0.395,0.259,0.635,0.259
				s0.466-0.089,0.635-0.259c0.24-0.239,0.259-0.503,0.259-1.217C151.203,32.508,151.184,32.244,150.944,32.004 M151.146,34.58
				c-0.221,0.222-0.518,0.344-0.837,0.344c-0.32,0-0.616-0.122-0.837-0.344c-0.305-0.305-0.311-0.605-0.311-1.357
				c0-0.758,0.005-1.054,0.311-1.359c0.221-0.221,0.517-0.344,0.837-0.344c0.319,0,0.616,0.123,0.837,0.344
				c0.306,0.306,0.31,0.602,0.31,1.359C151.457,33.975,151.452,34.275,151.146,34.58"/>
			<polyline fill="#FFFFFF" points="154.564,34.896 153.774,31.98 152.984,34.896 152.726,34.896 151.889,31.549 152.157,31.549 
				152.862,34.459 153.643,31.549 153.906,31.549 154.687,34.459 155.392,31.549 155.66,31.549 154.823,34.896 154.564,34.896 			
				"/>
			<path fill="#FFFFFF" d="M116.895,31.024l-4.257,4.261c-0.011,0.01-0.025,0.015-0.039,0.015c-0.015,0-0.028-0.005-0.039-0.015
				c-0.021-0.022-0.021-0.058,0-0.079l4.257-4.26c0.021-0.021,0.057-0.021,0.078,0C116.916,30.968,116.916,31.002,116.895,31.024
				 M116.498,34.95c-0.15,0.001-0.299,0.001-0.449,0.001c-0.035,0-0.061-0.015-0.068-0.049c-0.008-0.037-0.008-0.075,0.027-0.101
				c0.015-0.011,0.032-0.017,0.049-0.024c0.037-0.014,0.051-0.041,0.051-0.078c-0.001-0.244,0.004-0.488-0.006-0.732
				c-0.008-0.188-0.103-0.268-0.294-0.281c-0.12-0.008-0.238,0.002-0.352,0.043c-0.05,0.018-0.072,0.046-0.072,0.102
				c0.002,0.283,0.001,0.568,0.001,0.852c-0.001,0.052,0.013,0.09,0.067,0.104c0.046,0.012,0.064,0.044,0.063,0.088
				c0,0.048-0.023,0.076-0.072,0.077c-0.149,0.001-0.299,0.001-0.449,0.001c-0.035,0-0.058-0.016-0.069-0.049
				c-0.013-0.039-0.004-0.073,0.025-0.101c0.009-0.008,0.021-0.013,0.033-0.016c0.063-0.017,0.074-0.063,0.073-0.12
				c-0.001-0.104,0-0.209,0-0.312c0-0.148,0-0.299,0-0.448c0-0.064-0.003-0.121-0.089-0.132c-0.039-0.005-0.052-0.047-0.041-0.087
				c0.008-0.032,0.029-0.052,0.055-0.07c0.083-0.058,0.163-0.118,0.247-0.175c0.085-0.058,0.157-0.023,0.165,0.079
				c0.001,0.018,0.002,0.036,0.004,0.067c0.041-0.027,0.068-0.048,0.096-0.065c0.237-0.149,0.478-0.154,0.717-0.01
				c0.147,0.089,0.222,0.224,0.225,0.396c0.003,0.232,0.003,0.465,0.004,0.697c0,0.027,0.001,0.055,0,0.082
				c-0.001,0.048,0.014,0.084,0.064,0.096c0.053,0.013,0.064,0.051,0.062,0.098C116.563,34.924,116.543,34.95,116.498,34.95
				 M113.023,32.541c0.036,0.023,0.063,0.057,0.094,0.087c0.137,0.141,0.304,0.213,0.501,0.204c0.107-0.005,0.172-0.053,0.2-0.145
				c0.036-0.108,0.011-0.181-0.085-0.244c-0.067-0.043-0.142-0.069-0.215-0.098c-0.111-0.044-0.221-0.089-0.324-0.15
				c-0.316-0.188-0.28-0.583-0.046-0.776c0.135-0.11,0.29-0.149,0.461-0.138c0.104,0.007,0.207,0.014,0.308,0.043
				c0.121,0.034,0.127,0.123,0.133,0.25c0,0.019,0.002,0.133,0.003,0.135c0.003-0.001,0.007-0.002,0.007,0.029
				c0,0.041-0.013,0.04-0.055,0.057c-0.04,0.018-0.078-0.012-0.109-0.043c-0.036-0.037-0.071-0.086-0.108-0.121
				c-0.087-0.08-0.187-0.133-0.308-0.121c-0.07,0.008-0.133,0.028-0.161,0.099c-0.032,0.079-0.027,0.155,0.032,0.222
				c0.039,0.045,0.09,0.072,0.143,0.096c0.073,0.032,0.147,0.059,0.221,0.088c0.071,0.028,0.14,0.059,0.208,0.097
				c0.28,0.159,0.299,0.503,0.116,0.718c-0.13,0.15-0.298,0.229-0.498,0.234c-0.179,0.005-0.353-0.021-0.52-0.089
				c-0.07-0.028-0.107-0.07-0.111-0.149c-0.004-0.069-0.015-0.139-0.021-0.209C112.883,32.534,112.97,32.506,113.023,32.541
				 M114.59,29.393c-2.055,0-3.545,1.688-3.545,3.723c0,2.033,1.648,3.682,3.682,3.682s3.682-1.648,3.682-3.682
				C118.409,31.081,116.644,29.393,114.59,29.393"/>
			<polyline fill="#FFFFFF" points="114.053,31.709 114.053,31.709 114.051,31.709 114.053,31.709 			"/>
			<path fill="#FFFFFF" d="M182.484,33.632c0,0.241-0.159,0.423-0.478,0.544l-0.023-0.053l-0.059-0.004l-0.246,0.057
				c-0.191-0.047-0.294-0.123-0.31-0.229l-0.003-0.053l0.059-0.056l-0.025-1.726c0.001-0.07,0.217-0.082,0.645-0.035v-0.057
				l-0.061-0.06h0.061l0.146,0.228l0.148,0.053l0.162,0.238L182.484,33.632 M180.526,31.141c-0.004-0.002-0.026,0-0.032-0.002
				c0.005-0.028,0.026-0.059,0.031-0.088c0.004,0.001,0.011,0.002,0.017,0.004C180.537,31.083,180.532,31.111,180.526,31.141
				 M180.479,31.514c0.008-0.02,0.015-0.038,0.023-0.057C180.52,31.482,180.52,31.482,180.479,31.514 M180.502,30.863
				c0.02,0.005,0.038,0.01,0.063,0.018c-0.014,0.01-0.027,0.018-0.034,0.022c-0.022-0.008-0.041-0.013-0.059-0.02
				C180.473,30.857,180.474,30.855,180.502,30.863 M180.31,31.288c-0.009,0.005-0.032-0.001-0.053,0.01
				c0.012-0.038,0.032-0.046,0.107-0.046C180.347,31.259,180.334,31.279,180.31,31.288 M180.148,31.322
				c-0.001-0.005-0.003-0.008-0.003-0.012c0.024-0.004,0.042-0.031,0.077-0.004C180.198,31.312,180.172,31.316,180.148,31.322
				 M180.602,30.685c0.006-0.008,0.021-0.009,0.032-0.013c0.002,0.004,0.007,0.007,0.01,0.01c-0.008,0.014-0.015,0.027-0.021,0.041
				c-0.009-0.002-0.02-0.002-0.029-0.003C180.597,30.707,180.594,30.692,180.602,30.685 M180.74,30.733
				c-0.002,0.003-0.002,0.007-0.002,0.01c-0.024,0.013-0.046,0.024-0.075,0.038c-0.002-0.023-0.002-0.042-0.003-0.068
				C180.688,30.72,180.714,30.727,180.74,30.733 M183.828,31.762c-0.054-0.109-0.084-0.166-0.092-0.168
				c-0.208-0.414-0.756-0.736-1.648-0.969v0.061h-0.059l-0.064-0.061l-1.001-0.002c-0.035,0.028-0.059,0.082-0.049,0.098
				c-0.02,0.035-0.04,0.066-0.056,0.098s-0.032,0.063-0.047,0.096c-0.028,0.059-0.059,0.117-0.086,0.178
				c-0.012,0.027-0.055,0.055-0.063,0.084c-0.005,0.014-0.003,0.028-0.006,0.045c-0.024-0.008-0.028,0.01-0.038,0.031
				c-0.02,0.048-0.044,0.094-0.068,0.144c-0.003-0.005-0.009-0.011-0.009-0.013c0.009-0.027,0.02-0.053,0.027-0.079
				c0.003-0.009,0-0.02,0-0.035c0.044-0.029,0.061-0.085,0.085-0.134c0.041-0.085,0.081-0.171,0.117-0.257
				c0.023-0.05,0.039-0.103,0.059-0.156c-0.015-0.001-0.024-0.001-0.033-0.001c0.038-0.025,0.079-0.043,0.088-0.092
				c-0.017-0.002-0.032-0.004-0.048-0.006l-0.354-0.001l-0.056,0.017c0.015,0.004,0.033-0.014,0.048-0.002
				c-0.004,0.014-0.011,0.025-0.015,0.033c-0.025-0.006-0.05-0.011-0.076-0.016v-0.002l-0.27,0.085l-0.125-0.112l-0.055,0.043
				h-0.061l0.061,0.168v0.06l-0.056,0.056l0.056,0.506l-0.063,0.396l0.077,0.115l-0.021,0.057l-0.029,0.119l0.024,0.114l0.003-0.003
				l0.002,0.061l0.059,0.229l-0.064,0.224l-0.003,1.463l-0.005-0.004v0.482l0.041,0.133l0.023,0.126l0.003,0.057l-0.062,0.055
				l0.056,0.229v0.168l0.062-0.003l0.064,0.06l-0.003,0.057l0.189-0.057l0.366,0.057l0.066-0.004l0.123-0.112l0.123,0.116
				l0.311-0.057l0.123,0.057l0.727-0.012h0.187l0.067-0.052v0.052l0.646-0.272v-0.047l0.041-0.028l0.018,0.016
				c0.798-0.475,1.1-1.412,0.906-2.811C184.003,32.228,183.95,32.003,183.828,31.762"/>
			<path fill="#FFFFFF" d="M175.355,30.46c0.001-0.002,0.003-0.004,0.006-0.006c0.002,0.009,0.003,0.019,0.006,0.03
				c0.015-0.004,0.027-0.007,0.041-0.011c-0.024-0.026-0.045-0.052-0.07-0.075c-0.005-0.005-0.015-0.004-0.023-0.006
				c0,0.008-0.006,0.021-0.001,0.025C175.325,30.434,175.34,30.446,175.355,30.46"/>
			<path fill="#FFFFFF" d="M175.669,30.484c-0.018,0.012-0.038,0.023-0.061,0.037C175.642,30.538,175.65,30.535,175.669,30.484"/>
			<path fill="#FFFFFF" d="M175.23,30.487c0.002-0.005,0.007-0.013,0.017-0.027c-0.029-0.001-0.052-0.003-0.073-0.004v0.009
				C175.192,30.472,175.208,30.479,175.23,30.487"/>
			<path fill="#FFFFFF" d="M172.332,32.92c-0.023,0.001-0.027-0.018-0.035-0.031c-0.007-0.014-0.014-0.027-0.02-0.042
				c-0.004,0.001-0.008,0.003-0.011,0.004c0.009,0.023,0.019,0.047,0.026,0.07c-0.03,0.022-0.03,0.022-0.012,0.064
				c0.007-0.021,0.012-0.032,0.018-0.047c0.011,0.019,0.021,0.035,0.032,0.052c0.003,0.004,0.007,0.006,0.013,0.007
				c0.003,0,0.009-0.005,0.009-0.009c0-0.016,0.002-0.033-0.001-0.049C172.35,32.932,172.338,32.92,172.332,32.92"/>
			<path fill="#FFFFFF" d="M172.188,32.696c-0.013,0.047,0.008,0.081,0.038,0.11c0.004,0.005,0.017,0.004,0.026,0.005
				c0.001-0.002,0.003-0.005,0.004-0.007C172.203,32.786,172.214,32.73,172.188,32.696"/>
			<path fill="#FFFFFF" d="M172.457,32.834c-0.003,0-0.006-0.002-0.009-0.002c-0.001,0.005-0.003,0.01-0.004,0.015
				c-0.005,0.027-0.014,0.046-0.047,0.046c-0.02,0-0.038,0.013-0.058,0.019c0.001,0.004,0.001,0.009,0.003,0.013
				c0.041-0.013,0.082-0.025,0.128-0.039c-0.012-0.01-0.018-0.015-0.021-0.018C172.452,32.855,172.453,32.844,172.457,32.834"/>
			<path fill="#FFFFFF" d="M172.32,33.041c-0.008,0.02-0.014,0.039-0.019,0.06c0,0.001,0.006,0.007,0.008,0.006
				c0.014-0.008,0.029-0.015,0.04-0.025c0.003-0.005-0.001-0.02-0.003-0.032C172.335,33.046,172.32,33.041,172.32,33.041"/>
			<path fill="#FFFFFF" d="M172.359,33.004c0,0.037,0.035,0.067,0.063,0.06C172.42,33.021,172.377,33.029,172.359,33.004"/>
			<path fill="#FFFFFF" d="M171.883,33.123c0.003,0.002,0.004,0.003,0.006,0.004c0.009-0.006,0.021-0.01,0.028-0.019
				c0.012-0.019,0.024-0.028,0.045-0.015c-0.009-0.014-0.019-0.027-0.026-0.04C171.917,33.079,171.899,33.102,171.883,33.123"/>
			<path fill="#FFFFFF" d="M172.544,32.258c0.003,0.002,0.006,0.004,0.01,0.007c0.015-0.013,0.034-0.024,0.049-0.038
				c0.004-0.004,0.001-0.015,0.003-0.022c-0.006,0-0.011-0.001-0.017-0.001c0.009,0.023-0.014,0.016-0.023,0.022
				C172.558,32.234,172.552,32.247,172.544,32.258"/>
			<path fill="#FFFFFF" d="M172.094,32.906c0.006,0.023-0.006,0.056,0.033,0.059c0-0.017,0-0.033-0.001-0.053
				C172.115,32.91,172.106,32.908,172.094,32.906"/>
			<path fill="#FFFFFF" d="M172.305,32.393c-0.027,0.005-0.037,0.031-0.012,0.062C172.297,32.431,172.3,32.412,172.305,32.393"/>
			<path fill="#FFFFFF" d="M172.089,32.839c-0.001-0.003-0.006-0.006-0.011-0.009c-0.002,0.004-0.006,0.008-0.006,0.011
				c0.004,0.019,0.007,0.036,0.012,0.056c0.005-0.002,0.009-0.002,0.014-0.004C172.095,32.874,172.092,32.856,172.089,32.839"/>
			<path fill="#FFFFFF" d="M172.464,32.703c-0.001-0.002-0.003-0.006-0.004-0.008c-0.014,0.006-0.027,0.012-0.04,0.02
				c-0.001,0.003,0.004,0.017,0.009,0.031C172.444,32.729,172.453,32.716,172.464,32.703"/>
			<path fill="#FFFFFF" d="M172.311,32.839c0.008-0.009,0.012-0.019,0.019-0.028c-0.009-0.006-0.019-0.012-0.031-0.017
				C172.295,32.812,172.282,32.83,172.311,32.839"/>
			<path fill="#FFFFFF" d="M172.424,33.204c0.003,0.01,0.008,0.021,0.014,0.028c0.001,0.002,0.009,0,0.014,0
				c-0.003-0.01-0.004-0.021-0.008-0.029c-0.001-0.005-0.007-0.01-0.013-0.017C172.427,33.193,172.423,33.2,172.424,33.204"/>
			<path fill="#FFFFFF" d="M172.541,33.081c0.017,0.02,0.028,0.034,0.04,0.048C172.578,33.108,172.581,33.08,172.541,33.081"/>
			<path fill="#FFFFFF" d="M161.022,35.119c-0.002-0.006-0.003-0.014-0.006-0.02c-0.005-0.01-0.009-0.025-0.016-0.027
				c-0.052-0.008-0.04-0.052-0.057-0.092c0.038,0.019,0.067,0.031,0.096,0.047c0.005,0.002,0.01,0.012,0.009,0.018
				C161.045,35.066,161.038,35.088,161.022,35.119 M160.885,35.014c-0.002-0.004-0.004-0.007-0.006-0.009
				c0.005-0.017,0.01-0.034,0.016-0.057c0.016,0.013,0.029,0.024,0.042,0.035C160.92,34.992,160.902,35.004,160.885,35.014
				 M160.849,34.744c-0.004-0.008-0.012-0.016-0.012-0.022c0-0.009,0.008-0.017,0.012-0.025c0.004,0,0.007,0,0.011,0.001
				c0.004,0.01,0.011,0.019,0.009,0.026C160.867,34.732,160.856,34.737,160.849,34.744 M160.802,35.208h-0.06
				c-0.005-0.007-0.011-0.017-0.017-0.017c-0.044-0.002-0.051-0.037-0.066-0.066c-0.001,0-0.001,0-0.002,0v-0.001h-0.053
				c0.012,0.011,0.021,0.02,0.035,0.033c-0.016,0.003-0.037,0.012-0.039,0.009c-0.009-0.016-0.015-0.033-0.018-0.051
				c-0.001-0.002,0.019-0.011,0.029-0.014c0.02-0.004,0.046-0.016,0.045,0.022h0.001h0h0c0,0,0,0.001,0.001,0.001
				c0.041,0.023,0.053-0.03,0.082-0.037c-0.008,0.022-0.025,0.05-0.019,0.061c0.018,0.029,0.052,0.034,0.097,0.016
				C160.812,35.182,160.807,35.195,160.802,35.208 M160.373,35.049c-0.03,0.019-0.04-0.055-0.084-0.01v-0.058
				c0.042,0.018,0.078,0.032,0.115,0.047C160.392,35.036,160.382,35.043,160.373,35.049 M160.331,35.117
				c-0.019-0.005-0.034-0.014-0.049-0.013c-0.027,0.002-0.037-0.016-0.038-0.034c-0.001-0.007,0.021-0.02,0.036-0.023
				c0.01-0.004,0.022,0.001,0.041,0.002c-0.02,0.01-0.032,0.016-0.049,0.023c0.024,0.008,0.042,0.012,0.058,0.02
				C160.334,35.094,160.331,35.111,160.331,35.117 M160.302,35.208c0-0.005,0-0.011,0.001-0.017
				c0.006-0.001,0.011-0.001,0.017-0.002c0.002,0.006,0.004,0.013,0.006,0.019H160.302z M160.639,34.469c0.005,0,0.009,0,0.014,0
				c0.002,0.016,0.005,0.032,0.008,0.051C160.622,34.514,160.622,34.514,160.639,34.469 M160.786,34.961
				c-0.013-0.002-0.03-0.001-0.037-0.01c-0.024-0.026-0.041-0.057-0.014-0.106c0.009,0.014,0.017,0.022,0.022,0.033
				c0.008,0.017,0.017,0.034,0.022,0.052C160.784,34.939,160.784,34.951,160.786,34.961 M160.791,34.426
				c-0.02-0.001-0.038-0.002-0.064-0.004c0.009,0.015,0.014,0.021,0.019,0.029c-0.002,0.002-0.003,0.004-0.005,0.006
				c-0.018-0.014-0.037-0.028-0.059-0.046C160.721,34.412,160.761,34.373,160.791,34.426 M162.454,32.54
				c-0.824-0.166-1.235-0.323-1.235-0.47c0-0.078,0.161-0.148,0.481-0.211c0.626,0.105,1.106,0.263,1.44,0.474h0.071v-1.257
				c-0.405-0.312-1.001-0.47-1.787-0.47c-0.787,0-1.359,0.366-1.715,1.099v0.47c0,0.552,0.297,1.005,0.891,1.358
				c1.007,0.264,1.509,0.473,1.509,0.627c-0.109,0.104-0.246,0.154-0.41,0.154h-0.276c-0.33,0-0.833-0.156-1.51-0.47h-0.067
				l0.067,0.21v0.053l-0.067,0.053l0.067,0.049l-0.062,0.195c-0.011-0.007-0.023-0.014-0.036-0.015
				c0.012,0.055-0.034,0.024-0.052,0.041c0.018,0.007,0.036,0.012,0.053,0.012c0.019-0.001,0.027,0.005,0.02,0.022
				s-0.006,0.032,0.009,0.045c0.003,0.003,0.005,0.01,0.006,0.016c0.002,0.012,0.004,0.024,0.005,0.037
				c-0.023,0.003-0.046,0.009-0.069,0.002c0,0.004,0,0.006-0.001,0.01c0.014,0.004,0.029,0.009,0.044,0.014
				c0,0.01,0.001,0.02,0.002,0.031c0.032-0.01,0.055,0.008,0.064,0.028c0.005,0.011,0.01,0.018,0.016,0.021v0.095
				c-0.007-0.004-0.013-0.012-0.015-0.023c0-0.002-0.007-0.005-0.01-0.005c-0.04,0-0.057-0.034-0.089-0.056
				c0.015-0.003,0.023-0.005,0.027-0.006c-0.016-0.012-0.034-0.023-0.048-0.037c-0.012-0.013-0.022-0.02-0.04-0.012
				c-0.015,0.006-0.065-0.025-0.062-0.04c0.005-0.025-0.013-0.021-0.024-0.021s-0.024,0.001-0.039,0.003
				c0.036,0.031,0.071,0.062,0.108,0.096c-0.016,0.01-0.018,0.018-0.001,0.027c0.038,0.025,0.075,0.053,0.112,0.078
				c0.022,0.018,0.045,0.034,0.068,0.051c0,0.003,0,0.004-0.001,0.006c-0.013-0.002-0.026-0.006-0.042-0.01
				c0.008,0.013,0.015,0.022,0.021,0.032c-0.002,0.003-0.004,0.005-0.006,0.007c-0.009-0.006-0.016-0.013-0.025-0.02
				c-0.006-0.004-0.013-0.01-0.021-0.012c-0.024-0.004-0.049-0.007-0.073-0.012c-0.011-0.002-0.021-0.006-0.033-0.01
				c-0.001,0.004-0.002,0.008-0.004,0.011c0.021,0.008,0.043,0.015,0.063,0.023c0.009,0.004,0.017,0.01,0.024,0.015
				c0.01,0.006,0.019,0.013,0.028,0.02c0.011,0.007,0.022,0.014,0.033,0.021c0.008,0.007,0.023-0.018,0.029,0.011
				c-0.014,0.007-0.028,0.014-0.044,0.021c0.013,0.013,0.017,0.036,0.034,0.045l-0.04,0.033l0,0
				c-0.037-0.009-0.099-0.057-0.094-0.091c-0.036,0.007-0.052-0.017-0.062-0.046c-0.007,0.007-0.013,0.011-0.019,0.016
				c0.03,0.026,0.058,0.053,0.086,0.078c0.017,0.016,0.043,0.024,0.034,0.056c0.026,0.003,0.048,0.01,0.044,0.043
				c0,0.006,0.005,0.014,0.01,0.018c0.007,0.007,0.017,0.014,0.024,0.02c0.005,0.009,0.009,0.018,0.016,0.026
				c-0.001,0.001-0.003,0.003-0.004,0.003h0.007c0.114,0.166,0.466,0.316,1.055,0.45l0.5,0.104h0.872
				c0.916-0.381,1.372-0.816,1.372-1.309h-0.067l0.067-0.158C163.688,33.515,163.276,32.959,162.454,32.54"/>
			<path fill="#FFFFFF" d="M177.651,33.632c0,0.241-0.159,0.423-0.478,0.544l-0.021-0.053l-0.061-0.004l-0.246,0.057
				c-0.191-0.047-0.294-0.123-0.31-0.229l-0.002-0.053l0.059-0.056l-0.025-1.726c0.001-0.065,0.185-0.08,0.549-0.045l0.106,0.035
				c0,0,0.061,0.02,0.102,0.033l0.033,0.053l0.149,0.053l0.161,0.238L177.651,33.632 M177.484,35.298l-0.063,0.053l-0.123-0.111
				h0.187V35.298z M176.715,35.021h-0.059V34.85h0.123L176.715,35.021z M176.034,34.534c-0.004-0.003-0.009-0.007-0.014-0.011
				c0.018-0.07,0.09-0.102,0.118-0.165c0.003,0.003,0.009,0.007,0.012,0.011C176.112,34.424,176.073,34.479,176.034,34.534
				 M175.852,34.785c-0.009-0.078-0.001-0.088,0.053-0.123c0.022-0.014,0.036-0.04,0.055-0.062c0.011-0.015,0.022-0.029,0.033-0.044
				c0.004,0.004,0.008,0.007,0.012,0.01C175.955,34.637,175.906,34.707,175.852,34.785 M175.927,30.598
				c-0.006,0.008-0.012,0.016-0.018,0.025h-0.006c-0.003-0.013-0.004-0.023-0.008-0.035
				C175.906,30.592,175.916,30.595,175.927,30.598 M175.797,35.253c-0.014,0.022-0.03,0.044-0.045,0.065
				c-0.009-0.005-0.019-0.011-0.026-0.016c0.015-0.027,0.031-0.056,0.047-0.082c0.001-0.002,0.016,0.001,0.02,0.005
				C175.797,35.233,175.8,35.246,175.797,35.253 M175.559,35.024c-0.023,0.038-0.043,0.079-0.067,0.116
				c-0.022,0.033-0.051,0.062-0.086,0.102c-0.001-0.057,0.073-0.078,0.006-0.141c0.026,0.002,0.038,0.004,0.068,0.008
				c-0.021-0.025-0.037-0.041-0.055-0.062c0.006-0.003,0.023-0.014,0.03-0.009c0.049,0.033,0.059-0.003,0.076-0.029
				c0.023-0.035,0.047-0.07,0.072-0.105c0.007,0.006,0.014,0.012,0.021,0.017C175.603,34.955,175.58,34.989,175.559,35.024
				 M175.5,30.646c0,0.003-0.001,0.006-0.003,0.009c-0.006-0.001-0.011-0.002-0.015-0.004l0,0c0-0.008-0.004-0.013-0.006-0.017
				C175.483,30.637,175.492,30.642,175.5,30.646 M175.372,30.608c0.005-0.003,0.011-0.006,0.016-0.009
				c0.015,0.019,0.024,0.02,0.039,0.006c-0.005-0.01-0.007-0.021-0.011-0.027c0.021-0.002,0.04-0.004,0.055-0.006
				c0.001-0.01,0.001-0.017,0.005-0.021c0-0.002,0.009-0.002,0.014,0c0.001,0,0.002,0.005,0.006,0.008
				c-0.006,0.004-0.009,0.008-0.014,0.012c0.003,0.006,0.006,0.012,0.006,0.012c0.022,0.003,0.042,0.004,0.063,0.005
				c0,0.003,0,0.005,0.002,0.007c0.001-0.002,0.003-0.004,0.006-0.006c0.001,0.005,0.003,0.01,0.004,0.016
				c-0.004,0.001-0.011,0.002-0.017,0.005c0,0-0.003-0.004-0.007-0.007c-0.001,0.001-0.003,0.003-0.004,0.004
				c0.001,0.002,0.003,0.004,0.004,0.005c-0.011-0.003-0.02-0.006-0.027-0.01c-0.041-0.024-0.047-0.022-0.055,0.024
				c0.006,0.002,0.012,0.006,0.019,0.009c-0.003,0.003-0.006,0.008-0.009,0.013c-0.017-0.006-0.034-0.011-0.052-0.016
				c-0.001,0.004-0.003,0.008-0.003,0.012C175.398,30.631,175.384,30.619,175.372,30.608 M175.53,30.549
				c0.005,0.004,0.011,0.01,0.014,0.016c-0.004,0.002-0.012,0.006-0.02,0.009C175.527,30.564,175.528,30.558,175.53,30.549
				 M175.339,30.719l-0.012,0.004c0-0.006,0-0.012-0.001-0.019c-0.02,0.044-0.032-0.008-0.047,0.006
				c-0.003-0.013-0.003-0.025-0.005-0.038c0.02-0.01,0.038,0.006,0.052,0.014c0.004-0.01,0.009-0.02,0.014-0.029
				c0.003,0.012-0.001,0.029-0.005,0.047C175.337,30.705,175.339,30.711,175.339,30.719 M175.236,35.359
				c0.02-0.033,0.038-0.066,0.059-0.099c0.001-0.003,0.017,0.005,0.026,0.007C175.313,35.332,175.278,35.367,175.236,35.359
				 M175.23,30.689c0,0.004-0.005,0.01-0.008,0.012c-0.003-0.008-0.006-0.016-0.007-0.023c0.004,0.001,0.011,0.003,0.017,0.004
				C175.231,30.685,175.231,30.688,175.23,30.689 M175.248,30.686c0.021,0.014,0.023,0.025,0.009,0.043l-0.018-0.008
				c0.009-0.002,0.014-0.009,0.01-0.021C175.248,30.695,175.248,30.691,175.248,30.686 M175.202,30.664
				c-0.03-0.012-0.027-0.038-0.03-0.061c0.009-0.004,0.02-0.009,0.035-0.016C175.205,30.615,175.204,30.638,175.202,30.664
				 M178.995,31.762c-0.055-0.109-0.085-0.166-0.093-0.168c-0.208-0.414-0.757-0.736-1.646-0.969v0.023l-0.12-0.02l-0.004-0.004
				h-0.02h-0.004h-0.002l-0.83-0.002c0.003-0.002,0.005-0.006,0.006-0.009c-0.004-0.003-0.009-0.01-0.014-0.009
				c-0.015,0.004-0.029,0.01-0.042,0.014c0.013-0.026-0.017-0.017-0.024-0.028c0.004-0.003,0.009-0.005,0.011-0.006
				c-0.003-0.007-0.008-0.013-0.02-0.028c-0.006,0.01-0.012,0.02-0.017,0.029c-0.008-0.004-0.012-0.008-0.018-0.01
				c0.001-0.013,0.001-0.024,0.003-0.035c-0.003,0-0.006,0-0.009,0c0.001,0.017,0.001,0.033,0.003,0.049
				c-0.011-0.004-0.026-0.031-0.023-0.051h0.015c0.001-0.002,0.001-0.004,0.003-0.004c-0.004-0.006-0.009-0.011-0.015-0.016
				c-0.004-0.004-0.01-0.006-0.014-0.01c-0.006-0.006-0.008-0.012-0.012-0.017c-0.005,0.003-0.01,0.007-0.016,0.011
				c-0.001,0-0.003-0.001-0.004-0.001c0.001-0.006,0.001-0.013,0.003-0.019c0.004-0.013,0.009-0.025,0.014-0.038
				c0-0.001-0.004-0.007-0.008-0.009c-0.01-0.006-0.021-0.012-0.032-0.017c-0.004,0.019,0.006,0.025,0.027,0.025
				c-0.026,0.008-0.047,0.014-0.07,0.021c0,0-0.003-0.003-0.007-0.007c-0.001,0.002-0.003,0.003-0.005,0.005
				c0.008,0.008,0.016,0.016,0.021,0.021c0.001,0.018,0.004,0.034,0.007,0.05c-0.012-0.001-0.021-0.001-0.033-0.001
				c0.001,0.01,0.002,0.019,0.004,0.027c-0.001,0-0.003,0.001-0.004,0.002c-0.003-0.007-0.003-0.016-0.008-0.021
				c-0.006-0.008-0.017-0.02-0.023-0.019c-0.015,0.003-0.017-0.004-0.018-0.016c0-0.007-0.005-0.013-0.006-0.017
				c-0.009,0.014-0.018,0.027-0.029,0.045c-0.006-0.012-0.009-0.018-0.012-0.023c-0.004,0.002-0.009,0.003-0.007,0.002
				c-0.02-0.018-0.037-0.033-0.055-0.049c0.004-0.002,0.011-0.006,0.015-0.008c0.015,0.019,0.024,0.019,0.04,0.006
				c-0.004-0.012-0.008-0.021-0.011-0.027c0.021-0.002,0.04-0.005,0.055-0.006c0.001-0.011,0.001-0.018,0.004-0.021
				c0-0.003,0.009-0.002,0.014,0c0.003,0,0.004,0.005,0.006,0.008c-0.004,0.004-0.009,0.008-0.013,0.01
				c0.003,0.008,0.006,0.014,0.006,0.014c0.023,0.002,0.044,0.004,0.064,0.005c0,0.002,0,0.004,0.001,0.006
				c0.006-0.007,0.013-0.013,0.021-0.02c-0.003,0.001-0.004,0.003-0.006,0.003c-0.003-0.009-0.006-0.018-0.009-0.026
				c-0.001,0.003-0.001,0.006-0.003,0.01c-0.009,0.003-0.018,0.008-0.032,0.014c0.003-0.012,0.004-0.019,0.007-0.03
				c-0.032-0.004-0.062-0.008-0.091-0.013c0,0.002-0.001,0.003-0.001,0.005c0.004,0.004,0.009,0.008,0.013,0.012
				c-0.015,0.001-0.027,0.002-0.033-0.017c-0.003-0.011-0.015-0.02-0.029-0.005c0.003,0.004,0.008,0.008,0.012,0.012
				c-0.001,0.002-0.001,0.004-0.001,0.007c-0.009-0.001-0.02,0.001-0.027-0.003c-0.015-0.009-0.027-0.008-0.033,0.008
				c0.001,0.016,0.003,0.032-0.001,0.046c-0.003,0.009-0.006,0.014,0.001,0.021c0.001,0.002,0,0.008,0,0.012
				c-0.005,0-0.009,0-0.012-0.003c-0.006-0.006-0.011-0.014-0.018-0.022c-0.009,0.033-0.021,0.008-0.035,0.008
				c0.018-0.008,0.035-0.011,0.047-0.02c0.025-0.014-0.007-0.029,0.003-0.045c-0.015-0.004-0.03-0.006-0.045-0.008
				c0.003,0.01,0.005,0.014,0.006,0.021c-0.004-0.001-0.009-0.002-0.011-0.002c-0.003,0.014-0.003,0.029-0.012,0.035
				c-0.008,0.008-0.022,0.005-0.035,0.007c0.001,0.005,0.001,0.012,0.003,0.019c0,0.004,0.001,0.008,0.003,0.012
				c0.005-0.002,0.009-0.006,0.012-0.008c0.017,0.008,0.033,0.018,0.049,0.025c0.015,0.002,0.039-0.001,0.042,0.006
				c0.006,0.012,0,0.03-0.001,0.051c0.006,0.007,0.005,0.043,0,0.06h-0.006c-0.001-0.017-0.001-0.035-0.003-0.06
				c-0.021,0.045-0.034-0.007-0.048,0.006c-0.003-0.021-0.006-0.041-0.008-0.06c-0.014-0.001-0.023-0.001-0.034-0.002
				c-0.003,0.015-0.004,0.028-0.007,0.042c-0.001,0.005-0.005,0.012-0.009,0.014c-0.008,0.002-0.019,0-0.024,0
				c0.001,0.008,0.002,0.014,0.002,0.021c0.002,0.004,0.002,0.009,0.003,0.013c0.004,0,0.011-0.001,0.015-0.004
				c0.006-0.002,0.011-0.009,0.018-0.01c0.012-0.004,0.017-0.01,0.014-0.022c-0.001-0.005-0.001-0.009-0.001-0.015
				c0.021,0.015,0.023,0.025,0.007,0.045c-0.009,0.001-0.018-0.001-0.02,0.002c-0.004,0.009-0.007,0.019-0.011,0.03h-0.04
				c-0.001-0.001-0.001-0.001-0.003-0.001c-0.006-0.002-0.013-0.004-0.02-0.004c0.004-0.004,0.008-0.008,0.006-0.009
				c-0.008-0.017-0.009-0.032-0.037-0.04c-0.004-0.001-0.011-0.003-0.017-0.004c-0.001-0.001-0.003-0.002-0.005-0.002l0,0
				c-0.01-0.002-0.021-0.006-0.028-0.011c-0.001,0-0.001-0.001-0.001-0.002v0.002c-0.024-0.011-0.043-0.03-0.044-0.067
				c-0.001-0.035-0.062-0.053-0.093-0.025c0.028,0.008,0.05,0.014,0.072,0.02c0,0.004-0.002,0.008-0.003,0.012
				c-0.014,0.002-0.027,0.003-0.049,0.004c0.027,0.018,0.056,0.029,0.081,0.049c-0.029-0.005-0.056-0.008-0.082-0.012
				c-0.001,0.002-0.001,0.003-0.001,0.004c0.004,0.004,0.009,0.008,0.014,0.012c-0.015,0.002-0.027,0.002-0.033-0.016
				c-0.003-0.012-0.017-0.02-0.029-0.006c0.005,0.004,0.008,0.008,0.011,0.013c0,0.001,0,0.004,0,0.006
				c-0.009-0.001-0.02,0.002-0.028-0.002c-0.015-0.01-0.027-0.009-0.033,0.007c0.001,0.016,0.003,0.033-0.001,0.047
				c-0.005,0.008-0.006,0.013,0,0.02c0.001,0,0,0.002,0.001,0.002c-0.014-0.005-0.024-0.012-0.035-0.02
				c0.006-0.002,0.012-0.004,0.017-0.007c0.024-0.015-0.006-0.03,0.003-0.046c-0.017-0.004-0.03-0.006-0.045-0.008
				c0.003,0.01,0.004,0.015,0.006,0.021c-0.004-0.001-0.009-0.002-0.01-0.002c-0.002,0.006-0.002,0.01-0.003,0.016
				c-0.015-0.015-0.03-0.029-0.047-0.043c-0.003-0.003-0.011,0-0.018,0c0.001,0.013,0.003,0.023,0.004,0.035
				c-0.021-0.046-0.062-0.053-0.116-0.059c0.026-0.01,0.042-0.015,0.057-0.02c-0.001-0.004-0.003-0.008-0.005-0.012
				c-0.027,0.001-0.054,0.002-0.085,0.002c-0.009,0.025-0.018,0.054-0.028,0.082c0.059,0.033,0.079,0.029,0.109-0.018
				c0.012,0.008,0.023,0.016,0.029,0.021c0,0.017-0.001,0.03-0.001,0.043c-0.024,0.046-0.023,0.05,0.029,0.097
				c0.001,0.001,0.003,0.002,0.005,0.003c-0.002,0-0.005,0-0.008,0v0.001l-0.096-0.037h-0.061l0.061,0.168v0.06l-0.056,0.056
				l0.056,0.506l-0.045,0.284c-0.006,0.064-0.006,0.132,0.029,0.181c0.003,0.004,0.004,0.008,0.006,0.011l0.027,0.04l-0.041,0.09
				l0.014,0.085h-0.001l0.005,0.169l0.059,0.229l-0.064,0.224l-0.003,1.636l0.045,0.04c-0.001-0.009-0.003-0.02-0.004-0.029
				c0.003-0.001,0.004-0.001,0.007-0.002c0.023,0.042,0.046,0.083,0.07,0.128c-0.021-0.004-0.042-0.008-0.061-0.011
				c-0.003-0.021-0.006-0.039-0.007-0.058l-0.05,0.043v0.116l0.059,0.337l0.005,0.057l-0.064,0.055l0.056,0.229v0.168l0.063-0.003
				l0.04,0.038c0.021-0.041,0.042-0.083,0.063-0.128c0.041,0.034,0.061,0.022,0.076-0.02c0.009-0.026,0.035-0.043,0.052-0.065
				c0.045-0.06,0.094-0.118,0.135-0.182c0.021-0.035,0.027-0.08,0.041-0.123c0.068,0.021,0.079-0.051,0.13-0.07
				c-0.024,0.044-0.048,0.088-0.073,0.133c0.006,0.006,0.014,0.011,0.021,0.018c0.03-0.033,0.059-0.035,0.086,0.02
				c-0.027,0.003-0.052,0.003-0.073,0.008c-0.018,0.005-0.03,0.019-0.047,0.024c-0.022,0.007-0.021,0.057-0.063,0.027
				c-0.003-0.002-0.015,0.009-0.02,0.015c-0.078,0.102-0.155,0.204-0.235,0.304c-0.02,0.024-0.045,0.044-0.071,0.064l-0.003,0.054
				l0.189-0.057l0.366,0.057l0.067-0.004l0.123-0.112l0.125,0.116l0.31-0.057l0.123,0.057l0.727-0.012h0.187l0.067-0.052v0.052
				l0.645-0.272v-0.057h-0.182l-0.003-0.06h0.182l0.063,0.057c0.798-0.475,1.1-1.412,0.906-2.811
				C179.169,32.228,179.115,32.003,178.995,31.762"/>
			<path fill="#FFFFFF" d="M172.758,32.643c-0.003,0-0.006,0-0.009,0c-0.004-0.012-0.009-0.023-0.015-0.035h0.024V32.643
				 M172.646,32.319l-0.017,0.079c0-0.002,0-0.004-0.001-0.006c-0.009,0.003-0.021,0.004-0.029,0.01
				c-0.014,0.011-0.027,0.023-0.037,0.039c-0.006,0.008-0.006,0.02-0.009,0.03c0.011,0.003,0.021,0.003,0.032,0.007
				c0.008,0.004,0.017,0.006,0.026,0.01l-0.024,0.119v0.007c-0.002,0.002-0.003,0.004-0.005,0.005
				c-0.006,0.008-0.01,0.017-0.015,0.024c0.002,0,0.003,0,0.005,0c-0.003,0.013-0.005,0.024-0.008,0.041
				c0.008-0.001,0.018-0.005,0.029-0.002c0.018,0.003,0.015,0.064-0.004,0.077v-0.025c-0.024,0.012-0.035,0.045-0.037,0.068
				c0,0.018-0.014,0.033-0.021,0.05c-0.024-0.014-0.026,0.018-0.041,0.024c0.02,0.003,0.039-0.002,0.059-0.003
				c0.012-0.001,0.026,0.002,0.038,0.003v0.002c-0.005,0.008-0.008,0.016-0.011,0.021c0.001,0.008,0.004,0.014,0.006,0.021
				c0,0.002-0.006,0.005-0.009,0.006c-0.003-0.005-0.004-0.011-0.008-0.015c-0.003-0.004-0.009-0.008-0.012-0.008
				c-0.027,0.006-0.056,0.012-0.083,0.02c-0.001,0.003-0.001,0.007-0.003,0.01c0.019,0.006,0.035,0.012,0.052,0.015
				c0.003,0.001,0.009-0.015,0.015-0.027c0.004,0.007,0.012,0.015,0.012,0.022c0,0.004-0.012,0.009-0.02,0.014
				c-0.01,0.006-0.017,0.012-0.026,0.018c-0.012,0.007-0.031,0.009-0.038,0.019c-0.023,0.028,0.029,0.024,0.024,0.042
				c-0.019,0.016-0.032,0.027-0.047,0.04c0.009,0.021,0.05,0.021,0.029,0.054c0.015,0.006,0.028,0.01,0.044,0.016
				c0.008-0.024,0.013-0.049,0.02-0.072c0.005-0.011,0.017-0.027,0.022-0.026c0.026,0.003,0.032-0.011,0.03-0.035l0.002,0.001v0.872
				c-0.149,0.35-0.319,0.523-0.508,0.523h-0.395c-0.206,0-0.356-0.329-0.452-0.989l0.056-0.057l-0.11-0.575l0.054-0.063v-0.172
				l-0.054,0.057h-0.057l0.111-0.172v-0.291l-0.054-0.295h0.054l0.042-0.042l0.886-0.018h0.314l0.041-0.004l0.038,0.001
				c-0.01,0.004-0.015,0.008-0.015,0.01l0.015,0.011h-0.007c-0.008,0-0.014,0.011-0.02,0.032v0.003l0.007,0.028
				c0,0.002,0.03,0.003,0.089,0.004l-0.036,0.038v0.116l0.059,0.055h-0.059L172.646,32.319z M172.587,33.003
				c-0.023-0.003-0.04-0.007-0.056-0.01c0.003-0.007,0.001-0.018,0.007-0.021c0.006-0.004,0.015-0.004,0.024-0.006
				c0.007,0.008,0.014,0.018,0.024,0.03V33.003z M168.621,31.244c-0.006,0.012-0.017,0.02-0.026,0.029
				c-0.003-0.002-0.006-0.004-0.009-0.006c0.002-0.006,0.003-0.014,0.004-0.02v0.001l-0.001-0.001
				c-0.009,0.004-0.02,0.008-0.033,0.014c0-0.002-0.001-0.007-0.005-0.016c-0.009,0.009-0.02,0.017-0.028,0.024
				c-0.001-0.001-0.003-0.002-0.004-0.003c0.003-0.007,0.006-0.015,0.012-0.02c0.006-0.008,0.014-0.012,0.021-0.017
				c0.011-0.005,0.021-0.009,0.031-0.015c0.003,0.011,0.006,0.021,0.007,0.031c0.001,0,0.001,0,0.001,0l0,0
				c0.006-0.006,0.013-0.011,0.017-0.018c0.007-0.011,0.012-0.021,0.019-0.033c0.004,0.002,0.007,0.003,0.012,0.005
				C168.632,31.217,168.628,31.231,168.621,31.244 M168.489,31.367c-0.003-0.003-0.006-0.006-0.008-0.01
				c0.022-0.02,0.044-0.04,0.067-0.061c0.002,0.004,0.007,0.008,0.01,0.013C168.534,31.328,168.512,31.348,168.489,31.367
				 M168.531,31.539c-0.027-0.006-0.056-0.013-0.083-0.02c-0.013-0.002-0.013-0.002-0.018,0.014c0,0.002-0.007,0.008-0.009,0.007
				c-0.013-0.009-0.025-0.019-0.041-0.029c-0.012-0.003-0.029-0.007-0.046-0.013c-0.001-0.001,0.002-0.014,0.003-0.021
				c0.014,0.002,0.029,0.005,0.046,0.008c0.008-0.006,0.017-0.016,0.033-0.029c-0.004,0.015-0.007,0.023-0.01,0.03
				c0.03,0.019,0.08,0.02,0.094,0.001c0.012,0.004,0.024,0.008,0.037,0.012C168.536,31.51,168.534,31.521,168.531,31.539
				 M168.283,31.307c0.012-0.012,0.024-0.023,0.041-0.038C168.322,31.305,168.309,31.315,168.283,31.307 M168.254,31.106
				c-0.003,0.001-0.006,0.003-0.008,0.004c-0.014-0.02-0.027-0.039-0.044-0.062c0.021-0.012,0.038,0.001,0.047,0.015
				C168.257,31.074,168.252,31.092,168.254,31.106 M168.191,31.432c-0.007,0.004-0.02,0.008-0.025,0.003
				c-0.008-0.005-0.012-0.017-0.019-0.024c-0.012-0.012-0.026-0.027-0.036,0.003c-0.003,0.008-0.015,0.013-0.026,0.017
				c0.006-0.012,0.014-0.023,0.017-0.034c0.003-0.013,0.001-0.026,0.001-0.032c0.014,0.002,0.023,0.002,0.032,0.003
				c0.004,0.001,0.01,0.001,0.014,0.005c0.009,0.014,0.018,0.029,0.029,0.045c0.006-0.003,0.015-0.007,0.027-0.012
				C168.199,31.418,168.198,31.428,168.191,31.432 M168.116,31.76c0-0.002,0.001-0.006,0.001-0.009
				c0.015,0.004,0.03,0.008,0.05,0.013L168.116,31.76z M167.965,31.517c-0.001-0.016-0.001-0.024-0.002-0.035
				c-0.011-0.003-0.021-0.007-0.034-0.012c0.001-0.003,0.003-0.007,0.005-0.011c0.018,0.005,0.036,0.01,0.057,0.016
				C167.984,31.486,167.976,31.498,167.965,31.517 M167.92,31.545c-0.006,0.014-0.015,0.029-0.022,0.049
				c-0.003-0.001-0.005-0.002-0.017-0.058c0.007,0.007,0.014,0.011,0.017,0.013c0.017-0.008,0.03-0.015,0.045-0.022l0.004,0.017
				C167.938,31.544,167.931,31.544,167.92,31.545 M167.862,31.485c0.005-0.021,0.009-0.04,0.012-0.061
				c0.027,0.007-0.026,0.034,0.018,0.031c-0.009,0.013-0.017,0.022-0.022,0.032C167.867,31.486,167.864,31.486,167.862,31.485
				 M168.407,31.32c-0.027-0.006-0.035,0.039-0.064,0.012C168.389,31.302,168.389,31.302,168.407,31.32 M168.463,31.402
				c0.003,0.004,0.005,0.006,0.008,0.01c-0.015,0.012-0.028,0.023-0.044,0.035c-0.003-0.003-0.004-0.006-0.008-0.01
				C168.435,31.426,168.449,31.414,168.463,31.402 M167.755,31.101l0.025-0.034c0.006,0.01,0.013,0.02,0.017,0.027
				C167.78,31.097,167.77,31.099,167.755,31.101 M167.418,32.162h-0.109v0.049l-0.059,0.315h-0.108v-0.098l-0.421,0.126v-0.049
				l0.056-0.049v-0.015l-1.015,0.028l0.056-0.049l-0.056-0.05v-0.049l0.056-0.05l-0.05-0.432h0.583l0.919,0.012l0.04,0.26h0.109
				V32.162z M164.707,35.918c-0.02-0.009-0.017-0.025-0.02-0.041l0.001-0.001v0.001c0.008,0.002,0.014,0.004,0.021,0.007
				C164.708,35.895,164.708,35.906,164.707,35.918 M164.664,35.842c0.002-0.002,0.003-0.004,0.005-0.007
				c0.006,0.005,0.014,0.011,0.018,0.013c0,0.006,0,0.009,0,0.012C164.68,35.855,164.672,35.849,164.664,35.842 M164.548,35.747
				c-0.006-0.004-0.011-0.007-0.017-0.009c-0.008-0.005-0.017-0.008-0.024-0.012c0.009-0.007,0.021-0.014,0.024-0.011
				c0.009,0.005,0.015,0.008,0.021,0.007C164.551,35.731,164.549,35.74,164.548,35.747 M174.903,31.761l-0.036-0.03l-0.111,0.035
				l-0.252-0.002l-0.001-0.002c-0.006-0.008-0.009-0.014-0.012-0.021l-0.024-0.001v-1.04h-1.47v0.49l0.056,0.379h0.057l-0.075,0.113
				l-0.051,0.052l-0.41-0.006l-1.385,0.036v0.001l-0.146-0.027l0.374-0.056h0.168l-0.056-0.165l0.056-0.161v-0.057l-0.056-0.057
				v-0.053l0.056-0.056l-0.005-0.035l0.005-0.238v-0.161l-0.056-0.057l-0.056,0.057l-0.056-0.057l-0.056,0.057H171.3l-0.056-0.057
				h-0.843l-0.06-0.052v0.052h-0.056l-0.057-0.052h-0.167l-0.038,0.108v0.217l-0.019,0.783l-0.37,0.021l-0.006,0.028l-0.575-0.008
				h-0.008l-0.015-0.361v-0.431l0.056-0.315h-1.208l-0.269,0.049l0.055,0.267l-0.055,0.48l0.028,0.33h-0.17v0.003h-0.187
				c-0.339-0.018-0.585-0.031-0.737-0.04l-0.392-0.024l-0.031-0.461l0.049-0.457v-0.146h-0.049l-0.429,0.014l-0.727-0.014
				l-0.217,0.098l-0.023,0.506l0.021,0.483c-0.01,0.001-0.018,0.001-0.027,0.001l-0.115-0.01l-0.065,0.037l-0.164-0.004
				c-0.049-0.004-0.102-0.009-0.158-0.014c-0.239-0.023-0.359-0.034-0.359-0.031l-0.015,0.027v0.004
				c0.003,0.01,0.007,0.018,0.014,0.023l-0.041,0.002l-0.029,0.045l0.036,0.045l0.132,0.008l0.363-0.02l0.035,1.048l-0.052,0.048
				v0.05h0.052l-0.052,0.049l0.052,0.246v0.048l-0.02,0.042l0.02,0.058v0.049l-0.052,0.046l0.052,0.048v0.05l-0.052,0.049v0.05
				l0.052,0.295v0.098l-0.027,0.056l0.027,0.042v0.145l-0.014,0.059l0.014,0.039v0.832l0.04,0.033c0,0.006,0.001,0.01,0.003,0.014
				c0.003,0.003,0.005,0.007,0.006,0.01l-0.048,0.041v0.197h0.025c-0.006,0.025-0.012,0.049-0.02,0.071
				c-0.01,0.033-0.026,0.064-0.037,0.097c-0.006,0.02,0.003,0.031,0.026,0.031c0.006,0,0.012,0.008,0.02,0.012
				c-0.005,0.006-0.009,0.013-0.014,0.018c-0.003,0.004-0.011,0.002-0.014,0.006c-0.006,0.012-0.011,0.025-0.017,0.038
				c0.01,0.003,0.02,0.01,0.029,0.01c0.018-0.001,0.036-0.003,0.053-0.009c0.009-0.002,0.018-0.013,0.025-0.02
				c-0.007-0.008-0.015-0.016-0.021-0.025c-0.009-0.016-0.027-0.036-0.023-0.047c0.003-0.01,0.008-0.021,0.014-0.029
				c0.009,0,0.019,0.002,0.026,0.004c0.004,0.01,0.003,0.018-0.012,0.025c0.012,0.012,0.021,0.021,0.035,0.034
				c0.006-0.01,0.014-0.019,0.021-0.028c0.005,0.002,0.009,0.002,0.015-0.001c0.011-0.002,0.024,0.007,0.037,0.009
				c0.006,0.001,0.012,0.002,0.02,0.002c-0.001,0.003-0.001,0.006-0.001,0.01c-0.001,0.007,0,0.014,0,0.021
				c0.009,0,0.02,0.003,0.024-0.001c0.006-0.008,0.011-0.016,0.015-0.023c0.004,0.006,0.009,0.011,0.01,0.017
				c0.003,0.008,0.002,0.017,0,0.025c-0.009,0.036-0.007,0.08-0.028,0.104c-0.026,0.027,0,0.039,0,0.059
				c0.018-0.041,0.035-0.083,0.05-0.124c0.012,0.005,0.021,0.006,0.029,0.003c0,0.003,0,0.005,0.001,0.006
				c0.012,0.008,0.027,0.008,0.042,0.01v0.003c-0.017,0.03-0.017,0.032,0.018,0.063c0.005,0.004,0.011,0.006,0.02,0.012
				c-0.004-0.012-0.006-0.018-0.009-0.026c0.012,0.003,0.026,0.007,0.031,0.004c0.018-0.021,0.033-0.006,0.043,0.001
				c0.003-0.007,0.006-0.013,0.01-0.02c0.024,0.008,0.05,0.018,0.074,0.024c-0.009,0.003-0.018,0.005-0.029,0.009
				c0.024,0.012,0.046,0.022,0.072,0.035c0.004,0,0.015-0.006,0.025-0.006c0.005,0,0.012,0.001,0.018,0
				c0,0.001,0.002,0.002,0.003,0.002c0-0.001,0-0.002,0-0.002c0.001-0.002,0.003-0.004,0.003-0.007
				c0.015-0.015,0.062-0.021,0.033-0.044c0.003-0.002,0.006-0.004,0.011-0.007c-0.006-0.001-0.012-0.004-0.018-0.006
				c0.001-0.006,0.001-0.013,0.001-0.019c0.008-0.005,0.014-0.012,0.013-0.013c-0.002-0.007-0.004-0.015-0.009-0.02
				c0-0.012,0.001-0.021,0.02-0.024c0.008-0.002,0.011-0.015,0.02-0.029c0.003,0,0.015-0.001,0.024-0.002
				c-0.009-0.008-0.021-0.015-0.026-0.023c-0.006-0.007-0.004-0.017-0.003-0.025l0.044-0.019c0.004,0.006,0.007,0.011,0.007,0.017
				c0.002,0.004-0.009,0.01-0.015,0.012l0.071-0.019c-0.001-0.002-0.001-0.004-0.003-0.006c-0.009,0-0.017-0.001-0.026-0.001
				c0.005-0.004,0.008-0.008,0.012-0.01c0.006,0,0.011,0,0.012,0.002c0.015,0.018,0.027,0.015,0.042,0.004
				c0.011,0,0.02-0.007,0.022-0.023c0.001,0.002,0.002,0.002,0.004,0.003c0.004-0.007,0.009-0.015,0.014-0.022
				c0.001,0,0.004-0.001,0.007-0.001c0.001,0.008,0.003,0.017,0.004,0.026c0.002,0.018,0,0.036,0.003,0.055
				c0,0.004,0.009,0.008,0.013,0.008c0.016,0.003,0.032,0.004,0.049,0.006c-0.003-0.025-0.02-0.031-0.049-0.02
				c0.02-0.015,0.037-0.027,0.052-0.039c0.031-0.005,0.06-0.01,0.081-0.014c0.01,0.018,0.015,0.035,0.021,0.035
				c0.017,0.001,0.022-0.01,0.021-0.029c0-0.002,0.001-0.004,0.003-0.006l0.008,0.008c-0.003-0.004-0.006-0.006-0.008-0.008
				c0.005-0.006,0.012-0.013,0.019-0.015c0.006-0.001,0.013,0.001,0.021,0.003c-0.006,0.003-0.014,0.006-0.02,0.01
				c0.003,0.014,0.008,0.021,0.006,0.029c0,0.004-0.011,0.008-0.018,0.008h0.074c-0.002-0.002-0.002-0.004-0.002-0.006
				c-0.007-0.002-0.017-0.005-0.024-0.008c0.02-0.011,0.035-0.018,0.052,0.004c0.011,0.012,0.032,0.018,0.041-0.009
				c-0.008-0.003-0.014-0.007-0.021-0.01c0-0.003-0.001-0.006-0.001-0.009c0.012-0.004,0.024-0.013,0.035-0.01
				c0.024,0.003,0.038-0.003,0.039-0.023c0.003,0.002,0.004,0.005,0.006,0.006c0.009,0,0.015-0.005,0.017-0.014v0.002
				c0.022-0.006,0.042-0.01,0.064-0.014c-0.005-0.006-0.008-0.01-0.011-0.014c0.006,0,0.014-0.004,0.02-0.007
				c0.009-0.005,0.017-0.013,0.027-0.021c0.008-0.01,0.017-0.023,0.026-0.036l0.007,0.01c0.003-0.022,0.006-0.044,0.009-0.067
				l0.029-0.002v-0.072c0.003-0.006,0.006-0.013,0.011-0.021c-0.003-0.003-0.006-0.007-0.011-0.012v-0.037
				c0.015-0.011,0.029-0.021,0.045-0.031c-0.006-0.011-0.013-0.024-0.02-0.037h-0.026v-1.306l-0.056-0.05l0.056-0.196h1.332
				c0.059,0,0.112,0.098,0.159,0.295h-0.052l0.161,0.245h-0.056l-0.053-0.049l-0.052,0.049v0.732l0.105,0.147l-0.053,0.046h-0.052
				l0.052,0.049v0.295h0.529l0.057-0.05l0.053,0.05h0.622l0.109-0.099v-0.196l-0.057-0.049v-0.046l0.026-0.023l-0.026-0.025
				l0.057-0.05c0.041-1.102-0.126-1.327,0-2.641l-0.057-0.351l0.057-0.049l-0.032-0.219l0.065-0.006
				c0.005-0.003,0.04-0.005,0.103-0.008c-0.001,0-0.004,0-0.009,0l0.244,0.004c0,0,0.423-0.02,0.569-0.019l-0.024,0.103v0.548
				l0.113,0.491l-0.113,0.214l0.057,0.056v0.656l0.056,0.053h-0.056l0.056,0.273v0.436l0.171,0.221
				c0.253,0.426,0.762,0.732,1.525,0.923v-0.053h0.056l0.056,0.053h0.847l0.34-0.105v0.053c0.187-0.035,0.469-0.161,0.847-0.379
				v-0.056l-0.056-0.053h0.112l0.057,0.053c0.02-0.145,0.077-0.218,0.171-0.218l-0.06-0.057v-0.053l0.06,0.053h0.056
				c0.094-0.325,0.168-0.487,0.223-0.487l-0.057-0.057l0.168-0.656l-0.056-0.053v-0.33l0.056-0.382l-0.112-0.217l0.056-0.057
				c0-0.069-0.056-0.104-0.168-0.104v-0.057h0.113l0.056,0.057l0.056-0.274l-0.112-0.218c-0.055,0.014-0.058-0.084-0.008-0.294
				c0.001,0,0.003,0,0.004,0h0.092v0.003h0.161l0.469,0.035l0.018-0.039l-0.015-0.02l0.046-0.002l0.02-0.021l0.014-0.023
				l-0.001-0.029L174.903,31.761z"/>
			<path fill="#FFFFFF" d="M192.928,31.719c-0.004,0.001-0.012-0.004-0.017-0.009c-0.001-0.002,0.001-0.011,0.004-0.015
				c0.023-0.025,0.045-0.051,0.071-0.08c0.003,0.005,0.011,0.01,0.011,0.016C193.002,31.657,192.956,31.717,192.928,31.719
				 M192.945,31.837c-0.007-0.004-0.015-0.009-0.023-0.015c0.016-0.02,0.029-0.04,0.044-0.06c0.006,0.005,0.012,0.009,0.02,0.014
				C192.972,31.797,192.958,31.816,192.945,31.837 M192.99,32.312c0.002,0.002-0.004,0.021-0.007,0.022
				c-0.015,0.002-0.03,0-0.044-0.002c-0.02-0.003-0.041-0.015-0.058-0.01c-0.049,0.016-0.057-0.038-0.088-0.047
				c-0.003-0.001-0.003-0.013-0.003-0.011c0.017-0.007,0.036-0.012,0.036-0.017c0.002-0.043,0.034-0.048,0.076-0.049
				c-0.011,0.016-0.021,0.031-0.036,0.056c0.025,0.01,0.055,0.019,0.082,0.03C192.963,32.293,192.977,32.302,192.99,32.312
				 M192.848,32.078c-0.003,0.029-0.007,0.061-0.01,0.09C192.825,32.079,192.825,32.079,192.848,32.078 M192.754,31.865
				c0.004-0.018,0.006-0.038,0.011-0.057c0.012-0.046,0.009-0.052-0.037-0.051c0.001-0.047,0.003-0.092,0.004-0.153
				c0-0.02,0-0.052,0-0.085c0-0.047-0.001-0.094-0.001-0.141l0.044,0.004c-0.007,0.078-0.018,0.155,0.05,0.21
				c-0.009,0.021-0.018,0.042-0.027,0.062c0.004,0.004,0.01,0.008,0.015,0.011c0.023-0.021,0.044-0.042,0.067-0.064
				c0.003,0.005,0.007,0.008,0.01,0.011c-0.02,0.056-0.081,0.08-0.118,0.137c0.033,0.008,0.061,0.013,0.089,0.02
				c-0.003,0.004-0.006,0.015-0.013,0.02c-0.029,0.02-0.034,0.051-0.019,0.072c0.029,0.047,0.003,0.092,0.006,0.138
				c0.001,0.011-0.01,0.022-0.017,0.037c-0.043-0.045-0.035-0.092-0.034-0.146C192.779,31.885,192.769,31.876,192.754,31.865
				 M192.769,32.26c-0.021-0.002-0.043-0.001-0.065-0.007c-0.009-0.003-0.015-0.019-0.023-0.028c0.014-0.006,0.031-0.02,0.042-0.016
				c0.02,0.008,0.035,0.025,0.051,0.038C192.772,32.251,192.771,32.256,192.769,32.26 M192.652,32.229
				c-0.015-0.005-0.028-0.008-0.047-0.013c-0.009,0.016-0.018,0.031-0.027,0.047c-0.006-0.002-0.011-0.004-0.017-0.006
				c0.009-0.021,0.012-0.061,0.024-0.062c0.021-0.006,0.048,0.012,0.073,0.02C192.655,32.22,192.653,32.225,192.652,32.229
				 M192.295,32.254c0.023-0.069,0.05-0.077,0.099-0.034C192.361,32.231,192.332,32.242,192.295,32.254 M191.487,32.464l-0.13,0.336
				c-0.12,0.071-0.188,0.139-0.205,0.202l-0.019-0.02l-0.281,0.109l-0.324-0.05v-0.056l0.045-0.049l-0.004-0.109l-0.047-0.052h0.044
				l-0.044-0.057c-0.01-0.505,0.006-0.758,0.052-0.758l0.202-0.007C191.321,31.896,191.56,32.066,191.487,32.464 M188.46,31.633
				c0.001-0.078,0.004-0.156-0.07-0.203c0.007-0.023,0.015-0.045,0.021-0.065c-0.004-0.003-0.01-0.007-0.017-0.009
				c-0.02,0.023-0.04,0.047-0.059,0.07c-0.005-0.004-0.007-0.006-0.012-0.01c0.016-0.057,0.073-0.088,0.105-0.147
				c-0.034-0.003-0.061-0.007-0.089-0.01c0.002-0.005,0.004-0.017,0.01-0.021c0.027-0.021,0.029-0.054,0.012-0.073
				c-0.033-0.044-0.012-0.092-0.02-0.137c-0.001-0.011,0.008-0.023,0.012-0.039c0.047,0.041,0.046,0.089,0.049,0.143
				c0.004,0.004,0.018,0.01,0.033,0.02c-0.001,0.02-0.001,0.039-0.005,0.059c-0.009,0.046-0.004,0.052,0.041,0.047
				c0.003,0.046,0.006,0.092,0.009,0.152c0.001,0.02,0.005,0.051,0.009,0.084c0.004,0.047,0.009,0.093,0.015,0.141H188.46z
				 M188.322,30.857c0.023,0.087,0.023,0.087,0,0.091V30.857z M188.257,30.832c0.009-0.018,0.019-0.034,0.03-0.06
				c-0.027-0.007-0.056-0.014-0.084-0.022c-0.015-0.005-0.031-0.013-0.044-0.021c-0.003-0.002,0.001-0.022,0.005-0.023
				c0.015-0.004,0.03-0.003,0.044-0.002c0.021,0,0.044,0.011,0.059,0.004c0.046-0.021,0.058,0.033,0.093,0.038
				c0.001,0,0.003,0.013,0.001,0.011c-0.014,0.008-0.035,0.015-0.034,0.02C188.33,30.818,188.298,30.827,188.257,30.832
				 M188.214,31.262c0.011-0.021,0.023-0.043,0.034-0.064c0.009,0.004,0.017,0.008,0.024,0.012
				c-0.013,0.021-0.024,0.043-0.037,0.064C188.228,31.27,188.222,31.266,188.214,31.262 M188.291,31.336
				c-0.02,0.027-0.04,0.054-0.064,0.086c-0.003-0.004-0.011-0.009-0.012-0.015c-0.006-0.025,0.035-0.09,0.061-0.095
				c0.006,0,0.014,0.004,0.018,0.008C188.296,31.322,188.293,31.331,188.291,31.336 M188.171,31.584h-0.002
				c0.006,0.014,0.011,0.026,0.019,0.041c-0.002,0.003-0.005,0.006-0.006,0.008h-0.076c0.017-0.022,0.028-0.052,0.064-0.049l0,0
				c-0.018-0.016-0.038-0.031-0.065-0.054h0.104c0.006,0.014,0.011,0.03,0.023,0.059c-0.026-0.001-0.044-0.004-0.062-0.005H188.171z
				 M188.383,30.759c0.023,0,0.044-0.003,0.065,0.001c0.01,0.002,0.018,0.018,0.027,0.026c-0.014,0.007-0.029,0.022-0.04,0.02
				c-0.02-0.006-0.038-0.021-0.056-0.033C188.381,30.768,188.381,30.764,188.383,30.759 M194.185,31.862l-0.983-0.054
				c-0.022-0.133-0.056-0.252-0.1-0.359c-0.011,0.008-0.022,0.014-0.04,0.01l0,0c0.017,0.018,0.034,0.035,0.059,0.061
				c-0.044-0.004-0.073-0.007-0.104-0.01c-0.003-0.015-0.009-0.031-0.017-0.062c0.024,0.005,0.044,0.009,0.062,0.011h-0.001h0.001
				c-0.006-0.014-0.009-0.027-0.015-0.043c0.001-0.002,0.005-0.004,0.006-0.006l0.035,0.003c-0.147-0.338-0.402-0.552-0.765-0.641
				c-0.053-0.047-0.229-0.09-0.529-0.13v0.074l-0.28-0.066l-0.003-0.07l-0.164,0.076l-0.228-0.059h-0.053l-1.215,0.003l-0.56,0.021
				v0.294l-0.018,0.737l-0.017,0.116h-0.065c-0.012,0-0.168-0.002-0.466-0.004c-0.042-0.002-0.091-0.004-0.146-0.004h-0.058
				l0.012-0.133l-0.03-0.028v-0.063l0.03-0.027h-0.03l0.03-0.154v-0.067l-0.03-0.028l0.063-0.217l-0.033-0.031v-0.208
				c-0.012-0.003-0.022-0.008-0.035-0.011c0.001-0.004,0.003-0.01,0.004-0.014c0.009,0,0.02,0.002,0.03,0.004v-0.112l-0.441-0.02
				c0,0.011,0,0.021,0.004,0.026c0.006,0.014,0.021,0.023,0.033,0.037c-0.012,0.001-0.029,0.003-0.032,0.004
				c-0.011,0.021-0.015,0.043-0.022,0.045c-0.028,0.007-0.028,0.023-0.028,0.045c0.002,0.026-0.003,0.055-0.004,0.085
				c0.065,0.049-0.04,0.054-0.036,0.09c-0.012-0.011-0.026-0.021-0.038-0.032c0.073-0.113,0.086-0.169-0.001-0.283
				c0.027,0.004,0.045-0.004,0.059-0.02l-0.138-0.006h-1.063l-0.033-0.031l-0.03,0.031l-0.194-0.031l-0.097,0.031l-0.096-0.031
				l-0.034,0.031h-0.03l-0.033-0.031v0.031l-0.161-0.031h-0.033l-0.033,0.031v-0.031l-0.094,0.031h-0.033l-0.033-0.031l-0.098,0.031
				v-0.031l-0.03,0.031l-0.164-0.031h-0.451l-0.03,0.031v0.028l0.03,0.031v0.035l-0.03,0.028l0.03,0.031v0.215l-0.03,0.031
				l0.03,0.031v0.028l-0.03,0.126v0.031l0.03,0.028l-0.03,0.095v0.032l0.03,0.027l-0.03,0.187l-0.001,0.145l-0.378,0.002v0.012
				l0.029,0.154l-0.029,0.031l0.029,0.087l-0.029,0.032v0.586l0.029,0.158l-0.029,0.094v0.369l-0.033,0.031l0.033,0.031v0.092
				l-0.033,0.027l0.033,0.036v0.554l-0.033,0.154l0.033,0.028l-0.033,0.032v0.34l0.033,0.031h-0.033l0.033,0.34l-0.033,0.154
				l0.033,0.031h-0.033v0.032l0.033,0.028v0.066l-0.033,0.028h0.033v0.032l-0.033,0.027v0.063l0.062,0.063V35.46h0.034
				c0,0.054,0.054,0.085,0.161,0.095v-0.031l0.161,0.031l0.097-0.031v0.031l0.097-0.031l0.13,0.031h0.033l0.031-0.031l0.033,0.031
				h0.063l0.034-0.031v0.031l0.029-0.031v-0.096c0,0,0.187,0.154,0.421,0.154v-0.027l0.161,0.027l0.194-0.062l0.29,0.028h0.452
				l0.32,0.03l0.034-0.03l0.13,0.03h0.419v-1.259h-0.68l-0.223-0.034l-0.034,0.034l-0.452-0.034l-0.179,0.034
				c-0.214-0.022-0.32-0.055-0.32-0.095v-0.309l0.033-0.154l-0.033-0.031l0.38-0.063v0.035l0.126-0.035l0.02,0.035h0.192v-0.035
				l-0.033-0.028l0.161,0.063l0.033-0.035h0.097l0.034,0.035l0.03-0.035h0.033l0.033,0.035l0.064-0.063l0.063,0.063l0.129-0.063
				v0.028l0.161-0.06h0.035v0.031h-0.068v0.028l0.033,0.035l0.035-0.035l0.159,0.035v-0.063l0.13,0.063
				c0.042,0,0.064-0.052,0.064-0.154v-0.157h-0.003l-0.053-0.84h-0.031l0.031-0.09l-0.554,0.03c-0.025,0-0.127-0.003-0.238-0.005
				h-0.043c-0.153-0.004-0.311-0.008-0.321-0.008c-0.013,0-0.497-0.019-0.672-0.025l-0.028-0.042l0.063-0.47h0.097l0.192-0.031
				l-0.014,0.031l0.096-0.031v0.031h0.035l0.028-0.031h0.064l0.13,0.031l0.13-0.031h0.161l0.161,0.031l0.034-0.031l0.029,0.031
				h0.097l0.032-0.03h0.001v0.03l0.088-0.029c0.018,0,0.041,0.001,0.065,0.001l0.396,0.024l0.006-0.03l0.873,0.019l0.038,1.211
				c-0.066,0.67-0.006,1.34,0.045,2.008l0.016,0.452l1.455-0.005l-0.005-0.099l-0.056-0.049l0.053-0.004l-0.053-0.045l-0.003-0.053
				l0.01-0.788l-0.053,0.004c-0.02-0.201,0.007-0.304,0.079-0.306c0.264-0.007,0.478,0.222,0.642,0.688
				c0.155,0.397,0.336,0.618,0.549,0.634l1.387,0.017l-0.004-0.052l-0.914-1.669c0.488-0.312,0.77-0.728,0.842-1.248
				c-0.004-0.011-0.006-0.022,0.005-0.038c0.017-0.143,0.019-0.295,0.005-0.454l-0.026-0.211l0.654-0.03h0.05
				c-0.009-0.001-0.018-0.002-0.026-0.002L194.185,31.862z"/>
			<line fill="#FFFFFF" x1="188.169" y1="31.583" x2="188.169" y2="31.583"/>
			<polyline fill="#FFFFFF" points="191.961,24.514 192.19,24.514 192.19,25.557 192.312,25.557 192.312,24.514 192.54,24.514 
				192.54,24.404 191.961,24.404 191.961,24.514 			"/>
			<path fill="#FFFFFF" d="M193.045,25.371h-0.003l-0.219-0.967h-0.152v1.152h0.103v-0.955h0.003
				c0.009,0.067,0.043,0.219,0.07,0.334l0.14,0.621h0.1l0.139-0.607c0.026-0.123,0.062-0.271,0.073-0.35h0.002v0.957h0.11v-1.152
				h-0.151L193.045,25.371"/>
			<path fill="#FFFFFF" d="M212.458,17.734c-0.17,0-0.307-0.139-0.307-0.311c0-0.17,0.137-0.311,0.3-0.311h0.005
				c0.164,0,0.303,0.139,0.303,0.307C212.76,17.595,212.625,17.734,212.458,17.734 M212.452,17.061
				c-0.195,0-0.357,0.165-0.357,0.363c0,0.2,0.162,0.363,0.362,0.363c0.197,0,0.362-0.163,0.362-0.357
				C212.819,17.221,212.659,17.061,212.452,17.061"/>
			<path fill="#FFFFFF" d="M212.419,17.4h-0.014v-0.114h0.016c0.055,0,0.085,0.019,0.085,0.056S212.476,17.4,212.419,17.4
				 M212.492,17.458l0.005-0.002c0.049-0.015,0.085-0.062,0.085-0.115c0-0.042-0.021-0.081-0.055-0.103
				c-0.03-0.017-0.062-0.022-0.117-0.022h-0.053c-0.023,0-0.032,0.008-0.032,0.029v0.358c0,0.021,0.009,0.03,0.03,0.03h0.021
				c0.021,0,0.028-0.009,0.028-0.029l0.001-0.137l0.114,0.151c0.009,0.012,0.013,0.015,0.028,0.015h0.03
				c0.013,0,0.025-0.011,0.025-0.022c0-0.006-0.003-0.014-0.009-0.021L212.492,17.458z"/>
			<polyline fill="#FFFFFF" points="258.631,21.236 258.384,20.566 258.236,20.566 258.236,21.361 258.337,21.361 258.337,20.701 
				258.338,20.701 258.585,21.361 258.678,21.361 258.927,20.701 258.929,20.701 258.929,21.361 259.028,21.361 259.028,20.566 
				258.883,20.566 258.631,21.236 			"/>
			<polyline fill="#FFFFFF" points="257.512,20.655 257.776,20.655 257.776,21.362 257.883,21.362 257.883,20.655 258.146,20.655 
				258.146,20.566 257.512,20.566 257.512,20.655 			"/>
			<path fill="#FFFFFF" d="M193.789,31.104c-0.146,0-0.263-0.117-0.263-0.266c0-0.143,0.117-0.264,0.256-0.264h0.003
				c0.141,0,0.26,0.119,0.26,0.262C194.045,30.984,193.93,31.104,193.789,31.104 M193.781,30.529c-0.166,0-0.303,0.141-0.303,0.309
				c0,0.172,0.138,0.312,0.308,0.312c0.168,0,0.31-0.14,0.31-0.306C194.095,30.665,193.958,30.529,193.781,30.529"/>
			<path fill="#FFFFFF" d="M193.753,30.818h-0.012v-0.098h0.014c0.049,0,0.073,0.017,0.073,0.048
				C193.828,30.801,193.802,30.818,193.753,30.818 M193.815,30.868l0.006-0.001c0.041-0.014,0.071-0.054,0.071-0.1
				c0-0.035-0.019-0.068-0.047-0.086c-0.024-0.016-0.051-0.021-0.1-0.021H193.7c-0.018,0-0.026,0.007-0.026,0.024v0.306
				c0,0.019,0.008,0.026,0.024,0.026h0.018c0.019,0,0.024-0.008,0.024-0.024l0.001-0.118l0.098,0.131
				c0.007,0.01,0.01,0.012,0.024,0.012h0.026c0.011,0,0.021-0.009,0.021-0.02c0-0.005-0.003-0.011-0.007-0.018L193.815,30.868z"/>
			<g>
				<path fill="#FFFFFF" d="M146.453,18.635c-0.186-0.248-0.917-0.805-1.715-1.41c0.02,0.016,0.04,0.031,0.058,0.048
					c0.002,0.002,0.005,0.004,0.006,0.006c0.018,0.016,0.036,0.031,0.054,0.048c0.003,0.002,0.005,0.005,0.008,0.008
					c0.018,0.016,0.035,0.031,0.052,0.049c0.002,0.001,0.004,0.004,0.006,0.006c0.035,0.034,0.069,0.069,0.102,0.105
					c0.003,0.002,0.005,0.006,0.007,0.008c0.015,0.018,0.03,0.034,0.045,0.053c0.003,0.003,0.005,0.006,0.008,0.009
					c0.015,0.018,0.03,0.036,0.044,0.054c0.002,0.003,0.004,0.006,0.006,0.008c0.015,0.02,0.03,0.039,0.044,0.059
					c0.072,0.097,0.063,0.151,0.009,0.197c-0.056,0.047-1.722,1.431-1.79,1.484c-0.069,0.054-0.126,0.018-0.15-0.004
					c-0.229-0.213-0.478-0.289-0.844-0.217c-0.59,0.116-1.099,0.764-1.081,1.402l0,0.012c0.019,0.657,0.556,0.973,1.146,0.856
					c0.013-0.003,0.026-0.005,0.039-0.009c0.011-0.133,0.025-0.197,0.025-0.197c0.099-0.588,0.563-1.058,1.062-1.156
					c0.301-0.059,0.522-0.017,0.719,0.118c0.002,0.001,0.125,0.098,0.125,0.099c0.024,0.021,0.08,0.059,0.149,0.004l1.849-1.464l0,0
					c0.028-0.022,0.045-0.056,0.045-0.093C146.484,18.684,146.473,18.656,146.453,18.635"/>
				<path fill="#FFFFFF" d="M146.779,22.385l-1.332-1.057l0,0.001c0.003,0.002,0.006,0.005,0.008,0.008l0,0.001
					c0.002,0.003,0.004,0.006,0.005,0.009l0.001,0.001c0.001,0.004,0.003,0.007,0.004,0.011l0,0c0.007,0.027,0,0.061-0.011,0.093
					c0,0.001,0,0.001,0,0.002c-0.001,0.004-0.003,0.008-0.005,0.012c0,0.001-0.001,0.002-0.001,0.003
					c-0.002,0.004-0.003,0.007-0.005,0.011c0,0.002-0.001,0.003-0.001,0.004c-0.002,0.004-0.003,0.007-0.004,0.01
					c-0.001,0.002-0.002,0.003-0.003,0.005c-0.001,0.003-0.002,0.005-0.003,0.009c-0.001,0.002-0.002,0.004-0.002,0.006
					c-0.001,0.001-0.007,0.014-0.01,0.018c-0.534,1.062-1.592,2.053-2.983,2.33c-0.278,0.055-0.531,0.08-0.759,0.078
					c-1.578,0.005-2.712-1.055-2.754-2.938l0-0.02c-0.019-0.962,0.215-1.796,0.64-2.471c0.003-0.005,0.006-0.01,0.01-0.016
					c-0.141-0.111-1.111-0.876-1.142-0.899c0.021,0.019,0.035,0.045,0.035,0.075v0.072v1.98v0.001c0,0.051-0.038,0.093-0.087,0.101
					l0,0l-2.082,0.341l0,0c0,0,0,0,0,0l0,0.001c-0.029,0-0.052,0.023-0.052,0.053l0-0.001v0.869h0c0,0.028,0.023,0.052,0.052,0.052
					l0,0c0,0,1.756-0.287,1.764-0.287c0.056,0,0.102,0.045,0.102,0.102v0.001v2.019v0.001c0,0.052-0.037,0.093-0.085,0.101
					l-1.78,0.291l0,0l0,0l0,0c-0.025,0-0.047,0.02-0.052,0.044v1.268v0.001c0,0.053-0.04,0.097-0.091,0.102
					c0,0-2.052,0.336-2.277,0.372c-0.003,0.001-0.006,0.001-0.008,0.001c-0.007,0.001-0.011,0.002-0.012,0.002
					c-0.056,0-0.102-0.045-0.102-0.103l0,0V19.25l-0.943-0.742c0,0,0,0,0.001,0.001c0.023,0.019,0.038,0.047,0.038,0.079v0.072
					v6.571v0.001c0,0.05-0.036,0.091-0.083,0.1l0,0l-2.347,0.385c-0.007,0.001-0.014,0.002-0.021,0.002
					c-0.021,0-0.039-0.006-0.055-0.017l1.294,1.026c0.027,0.021,0.046,0.036,0.075,0.033c0.002,0,2.833-0.463,2.833-0.463
					c0.048-0.009,0.084-0.051,0.084-0.102v-0.404l0.48,0.382l0,0c0.034,0.026,0.071,0.021,0.071,0.021l2.315-0.379
					c0.048-0.008,0.085-0.049,0.085-0.1V24.42c0.001-0.021,0.017-0.041,0.038-0.047l0.013-0.002c0,0,0,0,0.001,0l0,0l2.076-0.34l0,0
					c0.048-0.008,0.085-0.051,0.085-0.102v-0.516c0.799,0.772,1.956,1.306,1.957,1.306c0.566,0.271,1.259,0.343,2.022,0.19
					c1.391-0.277,2.446-1.262,2.98-2.324C146.781,22.529,146.834,22.429,146.779,22.385"/>
			</g>
			<path fill="#FFFFFF" d="M146.021,17.331c0.17,0,0.305-0.139,0.305-0.306v-0.002c0-0.168-0.133-0.306-0.305-0.306
				c-0.17,0-0.306,0.14-0.306,0.308l0,0C145.715,17.193,145.848,17.331,146.021,17.331 M145.75,17.025
				c0-0.15,0.119-0.275,0.271-0.275c0.153,0,0.27,0.122,0.27,0.273v0.002c0,0.148-0.118,0.272-0.27,0.272
				C145.866,17.298,145.75,17.176,145.75,17.025L145.75,17.025z"/>
			<path fill="#FFFFFF" d="M145.978,17.083h0.039l0.064,0.099h0.106l-0.079-0.112c0.041-0.017,0.066-0.052,0.066-0.103
				c0-0.076-0.056-0.109-0.133-0.109h-0.156v0.324h0.091V17.083z M145.978,16.935h0.058c0.033,0,0.049,0.015,0.049,0.04
				c0,0.021-0.017,0.037-0.049,0.037h-0.058V16.935z"/>
			<g>
				<g>
					<g>
						<path fill="#FFFFFF" d="M210.235,33.104v-0.016c0-1.602,1.225-2.857,2.89-2.857c1.123,0,1.845,0.471,2.332,1.138l-1.146,0.888
							c-0.314-0.385-0.675-0.644-1.201-0.644c-0.769,0-1.312,0.659-1.312,1.46v0.016c0,0.824,0.542,1.468,1.312,1.468
							c0.573,0,0.911-0.267,1.241-0.667l1.146,0.816c-0.518,0.715-1.217,1.241-2.426,1.241
							C211.499,35.946,210.235,34.744,210.235,33.104"/>
						<path fill="#FFFFFF" d="M202.837,34.041v-2.69l0.905,0.521V30.34h-1.539v3.094c0,0.77-0.4,1.13-1.021,1.13
							c-0.613,0-1.013-0.376-1.013-1.17V30.34h-1.539v3.086c0,1.719,0.981,2.512,2.536,2.512c1.522,0,2.522-0.746,2.572-2.418
							L202.837,34.041"/>
						<polyline fill="#FFFFFF" points="208.336,30.34 207.024,32.468 205.713,30.34 204.104,30.34 204.104,32.081 205.167,32.695 
							204.104,33.31 204.104,35.836 205.596,35.836 205.596,32.688 206.993,34.831 207.024,34.831 208.43,32.68 208.43,35.836 
							209.945,35.836 209.945,30.34 208.336,30.34 						"/>
						<polyline fill="#FFFFFF" points="203.089,31.787 204.66,32.694 203.089,33.602 203.089,31.787 						"/>
					</g>
				</g>
			</g>
			<g>
				<path fill="#FFFFFF" d="M77.183,16.308v10.785h19.17V16.308H77.183z M83.634,24.025H82.63l-0.028-0.357
					c-0.246,0.201-0.88,0.467-1.532,0.467c-1.015,0-1.674-0.773-1.674-1.426c0-1.252,1.293-1.56,2.861-1.56
					c0.005,0,0.321,0.001,0.321,0.001v-0.001c0,0,0.001-0.085,0.001-0.107c0-0.165-0.083-0.862-0.939-0.862
					c-0.716,0-0.932,0.32-1.01,0.604h-1.055c0-0.354,0.275-1.517,2.047-1.517c1.495,0,2.012,0.806,2.012,2.233V24.025z
					 M88.23,24.025V20.62l-0.945,3.405h-1.004l-0.944-3.405v3.405h-1.09v-4.646h1.669c0,0,0.789,2.975,0.867,3.34l0.868-3.34h1.667
					l0.002,4.646H88.23z M92.062,24.135c-1.317,0-2.236-1.049-2.236-2.435c0-1.446,0.925-2.435,2.236-2.435
					c1.096,0,1.959,0.777,2.18,1.875h-1.051c-0.176-0.537-0.603-0.898-1.128-0.898c-0.693,0-1.216,0.628-1.216,1.458
					s0.522,1.459,1.216,1.459c0.528,0,0.958-0.366,1.131-0.908h1.051C94.027,23.354,93.162,24.135,92.062,24.135z"/>
				<path fill="#FFFFFF" d="M81.436,22.037c-0.408,0.042-0.961,0.179-0.961,0.662c0,0.356,0.351,0.518,0.851,0.518
					c0.577,0,1.035-0.279,1.159-0.553c0.065-0.139,0.104-0.274,0.104-0.412v-0.258c0,0-0.282,0-0.32,0
					C82.101,21.994,81.842,21.997,81.436,22.037z"/>
			</g>
			<path fill="#FFFFFF" d="M96.696,16.772c0-0.263,0.206-0.461,0.469-0.461c0.263,0,0.469,0.198,0.469,0.461
				c0,0.264-0.206,0.462-0.469,0.462C96.902,17.234,96.696,17.036,96.696,16.772 M97.552,16.772c0-0.224-0.159-0.384-0.387-0.384
				c-0.228,0-0.384,0.16-0.384,0.384s0.156,0.385,0.384,0.385C97.393,17.157,97.552,16.996,97.552,16.772z M96.989,16.524h0.191
				c0.114,0,0.171,0.067,0.171,0.154c0,0.062-0.033,0.116-0.095,0.139l0.117,0.2h-0.102l-0.102-0.18h-0.087v0.18h-0.094V16.524z
				 M97.175,16.753c0.055,0,0.082-0.032,0.082-0.074c0-0.045-0.032-0.069-0.082-0.069h-0.092v0.144H97.175z"/>
		</g>
		<g>
			<g>
				<path fill="#FFFFFF" d="M100.871,30.525v3.788h4.337l1.857-3.788H100.871z M102.756,31.688v1.981h-0.559v-1.981h-0.684V31.17
					h1.765l0.211,0.518H102.756z M104.749,33.669l-1.188-2.499h0.599l0.59,1.21l0.572-1.21h0.581L104.749,33.669z"/>
			</g>
			<g>
				<path fill="#FFFFFF" d="M86.303,33.087c0-1.476,1.145-2.562,2.576-2.562s2.576,1.086,2.576,2.562s-1.145,2.562-2.576,2.562
					S86.303,34.562,86.303,33.087 M90.64,33.087c0-1.057-0.727-1.849-1.761-1.849s-1.761,0.792-1.761,1.849s0.727,1.85,1.761,1.85
					S90.64,34.144,90.64,33.087"/>
				<path fill="#FFFFFF" d="M95.52,35.648h-0.957l-0.874-1.243c-0.113,0.015-0.241,0.022-0.369,0.022h-0.505v1.221H92.01v-5.123
					h1.311c1.409,0,2.184,0.776,2.184,1.959c0,0.791-0.354,1.4-1.024,1.71L95.52,35.648 M93.291,33.734
					c0.987,0,1.386-0.467,1.386-1.25c0-0.775-0.407-1.242-1.386-1.242h-0.475v2.492H93.291z"/>
				<polyline fill="#FFFFFF" points="96.906,32.281 96.906,35.648 96.153,35.648 96.153,30.525 99.498,33.893 99.498,30.525 
					100.251,30.525 100.251,35.648 96.906,32.281 				"/>
				<path fill="#FFFFFF" d="M86.125,34.853l-0.412-0.643l0,0l0,0c-0.375,0.483-0.852,0.727-1.497,0.727
					c-1.005,0-1.739-0.771-1.739-1.85c0-1.057,0.719-1.849,1.71-1.849c0.522,0,0.897,0.146,1.195,0.43
					c0.078,0.077,0.152,0.164,0.22,0.254l0,0l0.001-0.002l0,0l0,0l0.434-0.67c-0.135-0.136-0.287-0.256-0.454-0.357
					c-0.367-0.236-0.818-0.367-1.374-0.367c-1.423,0-2.546,1.087-2.546,2.562s1.101,2.562,2.524,2.562
					c0.624,0,1.117-0.142,1.526-0.424v-0.002C85.865,35.118,86.004,34.996,86.125,34.853"/>
				<polyline fill="#FFFFFF" points="80.487,34.924 80.786,35.648 81.637,35.648 81.401,35.105 80.487,34.924 				"/>
				<path fill="#FFFFFF" d="M81.599,34.791l-0.331-0.716H80.94l-1.574-3.55l-2.271,5.123h0.813l0.37-0.857H81.599 M78.587,34.075
					l0.768-1.779l0.768,1.779H78.587z"/>
				<polyline fill="#FFFFFF" points="102.175,34.313 100.871,34.313 102.175,35.65 102.175,34.313 				"/>
			</g>
		</g>
	</g>
</g>
<g>
	<path fill="#FFFFFF" d="M28.074,25.344h3.465l0.564,1.754h2.572l-3.653-9.893h-2.468l-3.652,9.893h2.545L28.074,25.344z
		 M29.771,20.188l1.031,3.035h-2.078L29.771,20.188z"/>
	<polygon fill="#FFFFFF" points="27.573,32.221 25.017,32.221 25.017,31.312 27.035,31.312 27.035,30.059 25.017,30.059 
		25.017,29.229 27.375,29.229 27.375,27.838 23.446,27.838 23.446,33.572 27.573,33.572 	"/>
	<polygon fill="#FFFFFF" points="36.873,21.65 38.709,27.096 41.198,27.096 43.032,21.65 44.845,27.096 47.713,27.096 
		44.375,17.205 41.965,17.205 39.948,22.907 37.956,17.205 35.545,17.205 33.839,22.313 35.342,26.383 	"/>
	<polygon fill="#FFFFFF" points="18.821,30.428 21.268,33.572 22.659,33.572 22.659,27.838 21.088,27.838 21.088,30.869 
		18.732,27.838 17.25,27.838 17.25,33.572 18.821,33.572 	"/>
	<g>
		<path fill="#FFFFFF" d="M52.736,29.812v-0.015c0-0.567-0.172-1.008-0.507-1.337c-0.385-0.394-0.99-0.622-1.867-0.622h-2.767v5.734
			h1.588v-1.736h0.754l1.153,1.736h1.833l-1.367-1.999C52.268,31.27,52.736,30.689,52.736,29.812 M51.107,29.91
			c0,0.417-0.312,0.68-0.851,0.68H49.15v-1.375h1.098c0.532,0,0.859,0.229,0.859,0.68V29.91z"/>
	</g>
	<polygon fill="#FFFFFF" points="65.218,32.979 65.486,33.391 65.501,33.391 65.773,32.979 65.773,33.562 65.878,33.562 
		65.878,32.794 65.765,32.794 65.495,33.213 65.224,32.794 65.107,32.794 65.107,33.562 65.218,33.562 	"/>
	<g>
		<path fill="#FFFFFF" d="M52.071,27.251c2.172,0,3.421-0.94,4.345-2.218l-2.046-1.459c-0.59,0.716-1.192,1.193-2.215,1.193
			c-1.374,0-2.342-1.15-2.342-2.625v-0.027c0-1.432,0.968-2.597,2.342-2.597c0.941,0,1.584,0.449,2.146,1.149l2.046-1.584
			c-0.87-1.208-2.16-2.048-4.164-2.048c-2.973,0-5.172,2.243-5.172,5.106v0.028C47.011,25.104,49.269,27.251,52.071,27.251"/>
	</g>
	<polygon fill="#FFFFFF" points="64.939,32.794 64.34,32.794 64.34,32.904 64.585,32.904 64.585,33.563 64.693,33.563 
		64.693,32.904 64.939,32.904 	"/>
	<g>
		<path fill="#FFFFFF" d="M61.828,30c-0.794-0.18-0.99-0.295-0.99-0.557v-0.016c0-0.205,0.188-0.369,0.572-0.369
			c0.508,0,1.082,0.194,1.605,0.565l0.793-1.122c-0.622-0.499-1.382-0.762-2.357-0.762c-1.375,0-2.217,0.771-2.217,1.835v0.017
			c0,1.18,0.941,1.523,2.161,1.801c0.778,0.181,0.965,0.312,0.965,0.549v0.017c0,0.247-0.228,0.393-0.654,0.393
			c-0.663,0-1.294-0.237-1.857-0.688l-0.884,1.058c0.703,0.632,1.669,0.949,2.684,0.949c1.392,0,2.316-0.696,2.316-1.866v-0.017
			C63.964,30.713,63.146,30.288,61.828,30"/>
	</g>
	<polygon fill="#FFFFFF" points="59.005,27.838 57.123,27.838 55.149,30.164 55.149,27.838 53.563,27.838 53.563,33.572 
		55.149,33.572 55.149,32.09 55.731,31.441 57.171,33.572 59.079,33.572 56.837,30.303 	"/>
	<polygon fill="#FFFFFF" points="31.648,27.838 27.983,27.838 27.983,29.23 29.341,29.23 29.341,33.572 30.927,33.572 30.927,29.23 
		32.111,29.23 	"/>
	<g>
		<path fill="#FFFFFF" d="M46.998,30.689c0-1.647-1.311-2.965-3.078-2.965c-1.766,0-3.092,1.334-3.092,2.981v0.015
			c0,1.647,1.309,2.967,3.077,2.967s3.093-1.336,3.093-2.981V30.689L46.998,30.689z M45.378,30.721c0,0.828-0.582,1.532-1.458,1.532
			c-0.868,0-1.464-0.722-1.464-1.548v-0.016c0-0.826,0.582-1.532,1.448-1.532c0.876,0,1.474,0.72,1.474,1.548V30.721L45.378,30.721z
			"/>
	</g>
	<polygon fill="#FFFFFF" points="39.354,27.838 38.385,31.156 37.318,27.838 35.982,27.838 34.914,31.156 33.947,27.838 
		32.319,27.838 34.259,33.572 35.576,33.572 36.631,30.312 37.693,33.572 39.01,33.572 40.951,27.838 	"/>
	<rect x="70.857" y="14.269" fill="#FFFFFF" width="0.988" height="22.673"/>
</g>
<polyline fill="#FFFFFF" points="10.262,44.029 15.491,42.219 15.148,41.23 11.309,42.561 11.309,10.545 15.148,11.875 
	15.491,10.887 10.262,9.076 10.262,44.029 "/>
</svg>
