<svg xmlns="http://www.w3.org/2000/svg" xmlns:xlink="http://www.w3.org/1999/xlink" width="24" height="24" viewBox="0 0 24 24">
    <defs>
        <path id="a" d="M14.144 22.49c-.81.864-2.688 1.452-4.369 1.48h-.184c-5.648 0-6.875-4.153-6.875-6.577V10.66H.491a.467.467 0 0 1-.466-.467v-3.18c0-.335.211-.634.528-.746C3.452 5.247 4.36 2.716 4.496.793 4.532.279 4.8.03 5.247.03h3.316c.258 0 .467.208.467.466v5.385h3.882c.257 0 .466.208.467.466v3.82a.467.467 0 0 1-.467.467h-3.9v6.227c0 1.564 1.03 1.995 1.667 1.995.61-.014 1.212-.2 1.513-.321.223-.09.42-.15.596-.105.164.04.271.157.344.368l1.029 3.006c.083.24.155.501-.017.685z"/>
    </defs>
    <g fill="none" fill-rule="evenodd" transform="translate(5)">
        <mask id="b" fill="#fff">
            <use xlink:href="#a"/>
        </mask>
        <use fill="#FFF" fill-rule="nonzero" xlink:href="#a"/>
        <path fill="#FFF" d="M-5 0h24v24H-5z" mask="url(#b)"/>
    </g>
</svg>
