<svg xmlns="http://www.w3.org/2000/svg" width="24" height="24" viewBox="0 0 24 24">
    <path fill="#FFF" fill-rule="evenodd" d="M21.17 5.95a4.755 4.755 0 0 0 2.165-2.605c-.973.55-2.029.937-3.127 1.143a5.023 5.023 0 0 0-3.592-1.484 4.82 4.82 0 0 0-4.928 4.708c0 .362.043.723.128 1.075A14.211 14.211 0 0 1 1.668 3.87a4.513 4.513 0 0 0-.665 2.366 4.657 4.657 0 0 0 2.19 3.917 5.083 5.083 0 0 1-2.231-.59v.06a4.77 4.77 0 0 0 3.95 4.614 5.199 5.199 0 0 1-2.225.082 4.913 4.913 0 0 0 4.6 3.268 10.172 10.172 0 0 1-6.115 2.014c-.392 0-.783-.022-1.172-.066a14.387 14.387 0 0 0 7.548 2.115c9.058 0 14.006-7.172 14.006-13.39 0-.205-.005-.41-.01-.609A9.767 9.767 0 0 0 24 5.209c-.903.382-1.856.631-2.83.741z"/>
</svg>
