<svg xmlns="http://www.w3.org/2000/svg" xmlns:xlink="http://www.w3.org/1999/xlink" width="24" height="24" viewBox="0 0 24 24">
    <defs>
        <path id="a" d="M23.497 2.652a3.015 3.015 0 0 0-2.12-2.143C19.505 0 12 0 12 0S4.496 0 2.622.51A3.015 3.015 0 0 0 .503 2.651C0 4.542 0 8.488 0 8.488s0 3.945.503 5.836a3.015 3.015 0 0 0 2.12 2.142c1.873.51 9.377.51 9.377.51s7.504 0 9.378-.51a3.015 3.015 0 0 0 2.119-2.142C24 12.434 24 8.488 24 8.488s0-3.946-.503-5.836zM9.547 12.07V4.905l6.27 3.583-6.27 3.582z"/>
    </defs>
    <g fill="none" fill-rule="evenodd" transform="translate(0 4)">
        <mask id="b" fill="#fff">
            <use xlink:href="#a"/>
        </mask>
        <use fill="#FFF" xlink:href="#a"/>
        <path fill="#FFF" d="M0 0h24v24H0z" mask="url(#b)"/>
    </g>
</svg>
